<svg width="639" height="476" viewBox="0 0 639 476" fill="none" xmlns="http://www.w3.org/2000/svg">
<path d="M638.823 418.302H0V418.621H638.823V418.302Z" fill="#EBEBEB"/>
<path d="M574.813 438.858H532.498V439.178H574.813V438.858Z" fill="#EBEBEB"/>
<path d="M516.412 438.858H425.942V439.178H516.412V438.858Z" fill="#EBEBEB"/>
<path d="M376.05 427.002H351.532V427.321H376.05V427.002Z" fill="#EBEBEB"/>
<path d="M110.836 429.148H67.0254V429.468H110.836V429.148Z" fill="#EBEBEB"/>
<path d="M201.868 429.148H122.207V429.468H201.868V429.148Z" fill="#EBEBEB"/>
<path d="M287.649 434.54H240.619V434.859H287.649V434.54Z" fill="#EBEBEB"/>
<path d="M302.802 361.318H56.1014C54.1688 361.315 52.3165 360.545 50.9511 359.177C49.5857 357.809 48.8188 355.956 48.8188 354.023V7.23148C48.8357 5.30993 49.61 3.47262 50.9735 2.11862C52.3371 0.764618 54.1798 0.00329171 56.1014 0H302.802C304.737 0 306.593 0.768617 307.961 2.13676C309.329 3.50491 310.098 5.36051 310.098 7.29536V354.023C310.098 355.958 309.329 357.814 307.961 359.182C306.593 360.55 304.737 361.318 302.802 361.318ZM56.1014 0.25553C54.2535 0.258915 52.4824 0.99537 51.177 2.30325C49.8715 3.61113 49.1383 5.38355 49.1383 7.23148V354.023C49.1383 355.871 49.8715 357.643 51.177 358.951C52.4824 360.259 54.2535 360.996 56.1014 360.999H302.802C304.651 360.996 306.424 360.26 307.731 358.952C309.039 357.645 309.775 355.872 309.778 354.023V7.23148C309.775 5.38238 309.039 3.60998 307.731 2.30247C306.424 0.994955 304.651 0.258908 302.802 0.25553H56.1014Z" fill="#EBEBEB"/>
<path d="M579.17 361.318H332.456C330.523 361.315 328.669 360.545 327.302 359.178C325.934 357.811 325.165 355.957 325.161 354.023V7.23148C325.181 5.30877 325.958 3.47146 327.324 2.11782C328.69 0.764172 330.534 0.00325581 332.456 0H579.17C581.089 0.00664951 582.929 0.769462 584.29 2.1231C585.651 3.47674 586.423 5.31214 586.44 7.23148V354.023C586.44 355.954 585.675 357.805 584.312 359.173C582.95 360.54 581.1 361.312 579.17 361.318ZM332.456 0.25553C330.607 0.258908 328.835 0.994955 327.527 2.30247C326.22 3.60998 325.484 5.38238 325.481 7.23148V354.023C325.484 355.872 326.22 357.645 327.527 358.952C328.835 360.26 330.607 360.996 332.456 360.999H579.17C581.019 360.996 582.792 360.26 584.099 358.952C585.407 357.645 586.143 355.872 586.146 354.023V7.23148C586.143 5.38238 585.407 3.60998 584.099 2.30247C582.792 0.994955 581.019 0.258908 579.17 0.25553H332.456Z" fill="#EBEBEB"/>
<path d="M202.814 44.5518H79.2781V385.3H202.814V44.5518Z" fill="#F5F5F5"/>
<path d="M202.814 385.312H204.066L204.066 44.5641H202.814L202.814 385.312Z" fill="#EBEBEB"/>
<path d="M190.893 57.5576H91.1985V372.306H190.893V57.5576Z" fill="white"/>
<path d="M255.772 246.253L547.19 246.253V29.7302L255.772 29.7302V246.253Z" fill="#E6E6E6"/>
<path d="M251.262 246.253L542.68 246.253V29.7302L251.262 29.7302V246.253Z" fill="#F5F5F5"/>
<path d="M534.58 237.17V38.8281L259.349 38.8281V237.17L534.58 237.17Z" fill="white"/>
<path d="M262.748 237.156V38.8145H259.337V237.156H262.748Z" fill="#E6E6E6"/>
<path d="M254.597 194.79L539.32 194.79V182.576L254.597 182.576V194.79Z" fill="#F5F5F5"/>
<g opacity="0.4">
<path d="M269.724 20.1611H242.216V89.7545H269.724V20.1611Z" fill="#E6E6E6"/>
<path d="M269.724 84.1582H283.369V20.1609H269.724V84.1582Z" fill="#F5F5F5"/>
<path d="M310.877 20.1611H283.369V89.7545H310.877V20.1611Z" fill="#E6E6E6"/>
<path d="M310.877 84.1582H324.522V20.1609H310.877V84.1582Z" fill="#F5F5F5"/>
<path d="M352.03 20.1611H324.522V89.7545H352.03V20.1611Z" fill="#E6E6E6"/>
<path d="M352.03 84.1582H365.675V20.1609H352.03V84.1582Z" fill="#F5F5F5"/>
<path d="M393.183 20.1611H365.675V89.7545H393.183V20.1611Z" fill="#E6E6E6"/>
<path d="M393.183 84.1582H406.828V20.1609H393.183V84.1582Z" fill="#F5F5F5"/>
<path d="M434.336 20.1611H406.828V89.7545H434.336V20.1611Z" fill="#E6E6E6"/>
<path d="M434.336 84.1582H447.981V20.1609H434.336V84.1582Z" fill="#F5F5F5"/>
<path d="M475.489 20.1611H447.981V89.7545H475.489V20.1611Z" fill="#E6E6E6"/>
<path d="M475.489 84.1582H489.134V20.1609H475.489V84.1582Z" fill="#F5F5F5"/>
<path d="M516.642 20.1611H489.134V89.7545H516.642V20.1611Z" fill="#E6E6E6"/>
<path d="M516.642 84.1582H530.287V20.1609H516.642V84.1582Z" fill="#F5F5F5"/>
<path d="M557.795 20.1611H530.287V89.7545H557.795V20.1611Z" fill="#E6E6E6"/>
</g>
<path d="M260.269 418.302H294.37V291.304H260.269V418.302Z" fill="#E6E6E6"/>
<path d="M265.955 418.301H260.282V406.866H271.909L265.955 418.301Z" fill="#F0F0F0"/>
<path d="M505.641 418.302H539.742V291.304H505.641V418.302Z" fill="#E6E6E6"/>
<path d="M260.282 413.906L510.586 413.906V291.303H260.282V413.906Z" fill="#F0F0F0"/>
<path d="M264.69 330.361L506.191 330.361V296.734H264.69V330.361Z" fill="#E6E6E6"/>
<path d="M325.8 307.185H445.119C450.652 307.185 455.954 303.033 459.761 295.687H311.133C314.94 303.033 320.229 307.185 325.8 307.185Z" fill="#F0F0F0"/>
<path d="M504.913 418.301H510.586V406.866H498.959L504.913 418.301Z" fill="#F0F0F0"/>
<path d="M264.69 369.419L506.191 369.419V335.791H264.69V369.419Z" fill="#E6E6E6"/>
<path d="M325.8 346.242H445.119C450.652 346.242 455.954 342.102 459.761 334.743H311.133C314.94 342.102 320.229 346.242 325.8 346.242Z" fill="#F0F0F0"/>
<path d="M264.69 408.477L506.191 408.477V374.849H264.69V408.477Z" fill="#E6E6E6"/>
<path d="M325.8 385.3H445.119C450.652 385.3 455.954 381.16 459.761 373.801H311.133C314.94 381.16 320.229 385.3 325.8 385.3Z" fill="#F0F0F0"/>
<path d="M319.412 476C456.225 476 567.134 469.525 567.134 461.537C567.134 453.549 456.225 447.074 319.412 447.074C182.598 447.074 71.6887 453.549 71.6887 461.537C71.6887 469.525 182.598 476 319.412 476Z" fill="#F5F5F5"/>
<path d="M472.576 454.241H471.209C470.924 454.22 470.656 454.095 470.456 453.89C470.256 453.686 470.138 453.415 470.123 453.13L461.716 394.588H468.104L473.675 452.746C473.706 452.917 473.701 453.093 473.662 453.262C473.623 453.431 473.55 453.59 473.447 453.73C473.344 453.87 473.214 453.988 473.064 454.075C472.914 454.163 472.748 454.22 472.576 454.241Z" fill="#407BFF"/>
<path opacity="0.3" d="M472.576 454.241H471.209C470.924 454.22 470.656 454.095 470.456 453.89C470.256 453.686 470.138 453.415 470.123 453.13L461.716 394.588H468.104L473.675 452.746C473.706 452.917 473.701 453.093 473.662 453.262C473.623 453.431 473.55 453.59 473.447 453.73C473.344 453.87 473.214 453.988 473.064 454.075C472.914 454.163 472.748 454.22 472.576 454.241Z" fill="black"/>
<path d="M490.105 454.241H488.738C488.453 454.22 488.185 454.095 487.985 453.89C487.785 453.686 487.667 453.415 487.652 453.13L479.245 394.588H485.633L491.217 452.746C491.247 452.918 491.243 453.094 491.203 453.264C491.163 453.434 491.089 453.594 490.984 453.734C490.88 453.874 490.748 453.992 490.597 454.079C490.446 454.166 490.279 454.221 490.105 454.241Z" fill="#407BFF"/>
<path opacity="0.3" d="M490.105 454.241H488.738C488.453 454.22 488.185 454.095 487.985 453.89C487.785 453.686 487.667 453.415 487.652 453.13L479.245 394.588H485.633L491.217 452.746C491.247 452.918 491.243 453.094 491.203 453.264C491.163 453.434 491.089 453.594 490.984 453.734C490.88 453.874 490.748 453.992 490.597 454.079C490.446 454.166 490.279 454.221 490.105 454.241Z" fill="black"/>
<path d="M392.442 454.241H393.809C394.094 454.22 394.362 454.095 394.562 453.89C394.762 453.686 394.88 453.415 394.895 453.13L403.302 394.588H396.914L391.343 452.746C391.312 452.917 391.317 453.093 391.356 453.262C391.395 453.431 391.468 453.59 391.571 453.73C391.674 453.87 391.804 453.988 391.954 454.075C392.104 454.163 392.27 454.22 392.442 454.241Z" fill="#407BFF"/>
<path opacity="0.3" d="M392.442 454.241H393.809C394.094 454.22 394.362 454.095 394.562 453.89C394.762 453.686 394.88 453.415 394.895 453.13L403.302 394.588H396.914L391.343 452.746C391.312 452.917 391.317 453.093 391.356 453.262C391.395 453.431 391.468 453.59 391.571 453.73C391.674 453.87 391.804 453.988 391.954 454.075C392.104 454.163 392.27 454.22 392.442 454.241Z" fill="black"/>
<path d="M374.913 454.241H376.28C376.565 454.22 376.833 454.095 377.033 453.89C377.232 453.686 377.351 453.415 377.366 453.13L385.773 394.588H379.384L373.814 452.746C373.783 452.917 373.787 453.093 373.826 453.262C373.866 453.431 373.939 453.59 374.042 453.73C374.144 453.87 374.275 453.988 374.424 454.075C374.574 454.163 374.74 454.22 374.913 454.241Z" fill="#407BFF"/>
<path opacity="0.3" d="M374.913 454.241H376.28C376.565 454.22 376.833 454.095 377.033 453.89C377.232 453.686 377.351 453.415 377.366 453.13L385.773 394.588H379.384L373.814 452.746C373.783 452.917 373.787 453.093 373.826 453.262C373.866 453.431 373.939 453.59 374.042 453.73C374.144 453.87 374.275 453.988 374.424 454.075C374.574 454.163 374.74 454.22 374.913 454.241Z" fill="black"/>
<path d="M352.196 325.174H395.227C402.893 298.663 430.337 277.748 458.471 277.748H472.448C501.834 277.748 520.896 300.656 514.892 328.931C513.769 334.132 511.924 339.151 509.41 343.841L502.626 384.968C501.757 390.283 497.516 394.589 493.172 394.589H363.644C359.3 394.589 355.058 390.283 354.189 384.968L345.91 334.744C345.028 329.48 347.852 325.174 352.196 325.174Z" fill="#407BFF"/>
<path opacity="0.5" d="M352.196 325.174H395.227C402.893 298.663 430.337 277.748 458.471 277.748H472.448C501.834 277.748 520.896 300.656 514.892 328.931C513.769 334.132 511.924 339.151 509.41 343.841L502.626 384.968C501.757 390.283 497.516 394.589 493.172 394.589H363.644C359.3 394.589 355.058 390.283 354.189 384.968L345.91 334.744C345.028 329.48 347.852 325.174 352.196 325.174Z" fill="white"/>
<path d="M341.426 439.102L352.081 443.982C352.263 444.059 352.407 444.203 352.483 444.385C352.56 444.566 352.562 444.77 352.49 444.953L349.13 453.629C348.929 454.072 348.561 454.417 348.106 454.59C347.651 454.762 347.146 454.747 346.702 454.548C343.023 452.785 341.349 451.75 336.66 449.604C331.704 447.155 326.915 444.38 322.325 441.299C318.85 438.744 321.405 435.294 323.13 436.061C330.923 439.498 335.906 439.804 339.522 438.936C340.157 438.77 340.829 438.829 341.426 439.102Z" fill="#263238"/>
<path d="M416.998 308.462C416.998 308.462 348.861 309.305 347.801 336.161C346.293 374.772 340.595 438.871 340.595 438.871L352.094 443.982C352.094 443.982 372.23 379.665 372.945 349.513C392.11 344.76 441.389 349.513 447.176 333.849C450.013 325.702 450.764 316.974 449.361 308.462H416.998Z" fill="#407BFF"/>
<path opacity="0.2" d="M416.998 308.462C416.998 308.462 348.861 309.305 347.801 336.161C346.293 374.772 340.595 438.871 340.595 438.871L352.094 443.982C352.094 443.982 372.23 379.665 372.945 349.513C392.11 344.76 441.389 349.513 447.176 333.849C450.013 325.702 450.764 316.974 449.361 308.462H416.998Z" fill="black"/>
<path d="M431.499 237.796C430.899 240.274 430.298 242.51 429.621 244.836C428.944 247.161 428.241 249.422 427.5 251.696C426.006 256.245 424.357 260.768 422.467 265.24C420.573 269.811 418.374 274.25 415.887 278.527C414.58 280.788 413.138 282.969 411.568 285.056C409.838 287.367 407.845 289.468 405.627 291.316L405.435 291.482L405.027 291.789C403.737 292.631 402.266 293.157 400.734 293.322C399.771 293.44 398.797 293.44 397.833 293.322C396.494 293.158 395.178 292.841 393.911 292.377C391.946 291.668 390.037 290.814 388.2 289.821C384.921 287.998 381.751 285.984 378.707 283.791C375.743 281.657 372.881 279.447 370.096 277.147C367.311 274.847 364.64 272.497 361.995 269.967C361.317 269.308 360.9 268.426 360.823 267.483C360.745 266.541 361.012 265.602 361.573 264.841C362.134 264.08 362.953 263.548 363.876 263.345C364.799 263.141 365.765 263.278 366.595 263.732H366.659C369.674 265.406 372.715 267.182 375.769 268.843C378.822 270.503 381.837 272.177 384.865 273.736C387.893 275.295 390.934 276.777 393.809 277.978C395.128 278.54 396.491 278.993 397.885 279.332C398.299 279.456 398.73 279.512 399.162 279.498C399.252 279.498 399.162 279.498 398.894 279.498C398.243 279.573 397.62 279.805 397.08 280.175L396.466 280.635C397.725 279.41 398.835 278.043 399.775 276.559C400.897 274.875 401.925 273.131 402.855 271.334C404.814 267.477 406.566 263.52 408.106 259.477C409.677 255.363 411.147 251.147 412.514 246.88C413.881 242.612 415.158 238.23 416.347 234.103V233.95C416.889 231.969 418.189 230.28 419.966 229.25C421.743 228.22 423.854 227.93 425.843 228.444C427.832 228.957 429.539 230.233 430.595 231.995C431.651 233.757 431.971 235.863 431.487 237.86L431.499 237.796Z" fill="#263238"/>
<path d="M403.877 444.621H416.653C416.76 444.616 416.867 444.632 416.967 444.669C417.068 444.705 417.16 444.761 417.238 444.834C417.317 444.906 417.38 444.994 417.424 445.091C417.469 445.188 417.493 445.294 417.497 445.4L418.123 455.507C418.123 456.039 417.914 456.55 417.541 456.93C417.169 457.31 416.662 457.528 416.13 457.538C411.683 457.461 409.55 457.193 403.928 457.193C400.478 457.193 393.502 457.551 388.724 457.551C383.946 457.551 384.086 452.836 386.105 452.44C395.189 450.524 398.702 447.879 401.909 445.349C402.468 444.899 403.159 444.643 403.877 444.621Z" fill="#263238"/>
<path d="M435.358 308.462C435.358 308.462 373.558 313.675 375.079 340.518C376.74 369.904 403.877 444.646 403.877 444.646H416.372C416.372 444.646 405.678 376.203 401.909 346.268C419.336 346.268 459.735 349.538 465.536 333.836C468.373 325.689 469.12 316.96 467.708 308.449L435.358 308.462Z" fill="#407BFF"/>
<path d="M367.553 264.984C366.589 263.414 365.42 261.979 364.078 260.717C361.523 263.093 360.13 270.005 360.13 270.005L363.618 270.312C363.618 270.312 367.63 269.009 367.553 264.984Z" fill="#407BFF"/>
<path d="M354.726 258.774L350.752 257.049C350.236 256.826 349.657 256.798 349.121 256.969C348.585 257.141 348.13 257.5 347.839 257.982L345.948 261.099C345.687 261.538 345.577 262.051 345.635 262.559C345.693 263.066 345.915 263.541 346.268 263.91L351.723 269.596L360.82 269.225C361.334 269.208 361.834 269.053 362.268 268.776C362.702 268.5 363.053 268.112 363.286 267.654L364.334 265.597C364.664 264.977 364.754 264.258 364.586 263.577C364.419 262.896 364.006 262.3 363.427 261.904C360.475 259.962 354.726 258.774 354.726 258.774Z" fill="#FFC3BD"/>
<path d="M416.41 235.176C414.596 246.675 412.233 271.5 417.049 308.935L467.708 308.462C467.401 282.513 471.464 258.161 475.438 234.359C475.595 233.424 475.564 232.467 475.345 231.545C475.125 230.623 474.723 229.754 474.162 228.99C473.601 228.226 472.892 227.583 472.077 227.098C471.263 226.614 470.359 226.298 469.42 226.169C454.892 224.47 440.215 224.47 425.686 226.169C423.381 226.484 421.237 227.528 419.568 229.149C417.899 230.769 416.793 232.882 416.41 235.176Z" fill="#263238"/>
<path d="M475.898 231.127C477.393 234.819 478.581 238.358 479.807 242.012C481.034 245.666 482.082 249.333 483.091 253.051C484.1 256.769 484.982 260.564 485.646 264.435C486.419 268.388 486.936 272.387 487.192 276.406C487.269 277.441 487.282 278.515 487.294 279.588V281.223C487.276 282.902 486.837 284.549 486.017 286.014C485.471 286.966 484.751 287.807 483.896 288.493C483.497 288.813 483.069 289.095 482.618 289.336C482.21 289.562 481.782 289.75 481.341 289.898C480.139 290.345 478.866 290.57 477.584 290.563C476.069 290.528 474.565 290.292 473.112 289.86C470.987 289.221 468.918 288.405 466.929 287.42C465.076 286.5 463.338 285.542 461.639 284.545C455.034 280.601 448.765 276.118 442.896 271.143C442.158 270.537 441.668 269.681 441.519 268.738C441.37 267.795 441.572 266.83 442.088 266.027C442.603 265.223 443.395 264.637 444.315 264.378C445.234 264.12 446.216 264.209 447.074 264.627H447.163C453.769 267.77 460.489 271.015 467.031 273.711C468.666 274.375 470.289 274.988 471.886 275.538C473.301 276.058 474.759 276.455 476.243 276.726C476.83 276.828 477.354 276.815 477.29 276.726C476.944 276.693 476.595 276.755 476.281 276.905C476.08 276.982 475.884 277.072 475.693 277.173C475.449 277.304 475.218 277.458 475.003 277.633C474.498 278.027 474.065 278.507 473.726 279.051C473.342 279.688 473.115 280.405 473.061 281.147L472.997 279.984C472.921 279.192 472.857 278.412 472.742 277.595C471.677 270.668 470.08 263.833 467.964 257.152C465.919 250.291 463.568 243.29 461.179 236.633V236.569C460.519 234.651 460.631 232.551 461.49 230.713C462.35 228.875 463.89 227.443 465.786 226.72C467.682 225.996 469.785 226.038 471.65 226.837C473.516 227.636 474.997 229.128 475.783 230.999L475.898 231.127Z" fill="#263238"/>
<path d="M455.647 200.476L449.527 205.586L441.171 212.524C441.429 213.63 441.608 214.753 441.708 215.884C442.104 219.921 441.223 223.627 436.329 225.505C435.399 225.809 434.551 226.324 433.851 227.008C433.151 227.693 432.617 228.529 432.292 229.453C431.627 231.586 432.407 233.975 439.127 233.975C449.003 233.975 454.152 229.58 456.094 227.421C456.355 227.121 456.506 226.742 456.522 226.344C456.538 225.947 456.419 225.557 456.184 225.236C452.287 219.666 454.05 207.4 455.647 200.476Z" fill="#FFC3BD"/>
<path d="M438.884 231.777C439.314 232.274 439.608 232.872 439.74 233.515C440.247 232.828 440.875 232.239 441.593 231.777C442.443 232.177 443.198 232.752 443.808 233.466C444.418 234.18 444.87 235.015 445.132 235.917C443.271 235.535 441.478 234.872 439.817 233.949C438.721 234.557 437.512 234.931 436.265 235.048C436.342 232.838 438.884 231.777 438.884 231.777Z" fill="#407BFF"/>
<path d="M441.593 231.778C443.367 233.914 444.536 236.486 444.979 239.227C444.979 239.227 461.333 235.138 460.566 224.47C459.129 223.791 457.601 223.322 456.03 223.077C456.03 223.077 452.517 229.465 441.593 231.778Z" fill="#407BFF"/>
<path d="M438.884 231.777C437.095 233.93 435.858 236.487 435.281 239.226C435.281 239.226 426.9 231.56 435.064 224.558C436.474 224.11 437.925 223.806 439.395 223.651C439.395 223.651 433.966 228.059 438.884 231.777Z" fill="#407BFF"/>
<path opacity="0.2" d="M441.171 212.485C441.428 213.596 441.607 214.723 441.708 215.858C444.825 215.232 448.978 211.923 449.374 208.742C449.528 207.689 449.566 206.622 449.489 205.561L441.171 212.485Z" fill="black"/>
<path d="M432.228 178.475C424.562 183.93 428.829 196.72 435.396 191.826C441.964 186.933 438.488 174.029 432.228 178.475Z" fill="#263238"/>
<path d="M458.177 189.871C456.043 199.658 455.302 205.484 449.514 209.955C447.65 211.428 445.419 212.362 443.061 212.659C440.704 212.955 438.311 212.601 436.141 211.635C433.97 210.67 432.105 209.129 430.746 207.18C429.388 205.231 428.588 202.948 428.433 200.577C427.666 191.455 431.282 176.967 441.58 174.194C443.797 173.533 446.149 173.467 448.399 174.003C450.649 174.538 452.719 175.656 454.401 177.245C456.082 178.833 457.317 180.836 457.979 183.052C458.642 185.268 458.71 187.62 458.177 189.871Z" fill="#FFC3BD"/>
<path d="M453.641 182.601C448.211 181.107 434.208 184.671 429.238 179.369C423.91 173.684 431.679 170.911 433.978 172.891C431.078 169.569 432.151 166.018 436.265 166.337C439.268 166.567 440.213 169.889 440.213 169.889C440.213 169.889 439.715 164.076 444.877 164.484C449.553 164.842 449.566 171.154 449.566 171.154C449.566 171.154 460.732 167.998 464.463 178.654C471.49 178.5 471.337 193.295 457.193 198.559C451.456 195.723 451.188 185.63 453.641 182.601Z" fill="#263238"/>
<path d="M462.955 180.788C462.587 180.81 462.225 180.688 461.945 180.448C461.665 180.207 461.49 179.867 461.457 179.5C461.423 179.133 461.535 178.767 461.767 178.48C461.999 178.193 462.333 178.008 462.7 177.964C463.084 177.721 463.376 177.357 463.53 176.929C463.736 176.52 463.856 176.073 463.882 175.616C463.909 175.159 463.841 174.702 463.683 174.272C463.576 174.101 463.507 173.909 463.479 173.709C463.452 173.509 463.468 173.306 463.525 173.113C463.583 172.92 463.681 172.741 463.813 172.588C463.946 172.436 464.109 172.314 464.292 172.229C464.475 172.145 464.674 172.101 464.876 172.1C465.078 172.098 465.277 172.14 465.462 172.222C465.646 172.304 465.81 172.425 465.944 172.575C466.078 172.726 466.179 172.904 466.239 173.096C466.586 173.951 466.739 174.873 466.686 175.795C466.633 176.716 466.375 177.614 465.932 178.424C465.682 178.997 465.304 179.505 464.829 179.91C464.353 180.315 463.791 180.607 463.185 180.762C463.11 180.781 463.033 180.79 462.955 180.788Z" fill="#263238"/>
<path d="M459.774 198.955C458.445 200.681 456.532 201.862 454.395 202.277C451.622 202.776 450.779 200.22 452.006 197.754C453.104 195.519 455.839 192.58 458.394 193.219C460.949 193.858 461.409 196.758 459.774 198.955Z" fill="#FFC3BD"/>
<path d="M441.401 190.765C441.274 191.57 440.75 192.17 440.226 192.107C439.702 192.043 439.37 191.34 439.485 190.535C439.6 189.73 440.137 189.13 440.673 189.257C441.21 189.385 441.516 189.96 441.401 190.765Z" fill="#263238"/>
<path d="M432.279 189.679C432.151 190.484 431.627 191.085 431.103 190.957C430.58 190.829 430.247 190.19 430.362 189.385C430.477 188.58 431.014 187.98 431.551 188.044C432.087 188.108 432.407 188.874 432.279 189.679Z" fill="#263238"/>
<path d="M435.064 189.999C434.048 192.073 432.759 194.003 431.231 195.736C431.683 196.097 432.21 196.355 432.773 196.489C433.336 196.624 433.922 196.633 434.489 196.515L435.064 189.999Z" fill="#ED847E"/>
<path d="M438.233 200.654C439.182 200.667 440.124 200.488 441.002 200.128C441.88 199.768 442.676 199.234 443.343 198.559C443.375 198.51 443.388 198.452 443.38 198.395C443.372 198.337 443.344 198.285 443.301 198.246C443.258 198.208 443.202 198.186 443.145 198.185C443.087 198.183 443.03 198.203 442.986 198.239C442.256 198.96 441.372 199.505 440.399 199.83C439.427 200.156 438.393 200.254 437.377 200.118C437.315 200.113 437.253 200.132 437.204 200.169C437.155 200.207 437.121 200.261 437.108 200.322C437.105 200.354 437.108 200.386 437.117 200.417C437.126 200.448 437.141 200.477 437.161 200.501C437.181 200.526 437.206 200.547 437.234 200.562C437.263 200.578 437.294 200.587 437.326 200.59C437.627 200.629 437.929 200.65 438.233 200.654Z" fill="#263238"/>
<path d="M445.068 186.128C445.144 186.112 445.214 186.077 445.272 186.025C445.318 185.981 445.353 185.929 445.378 185.87C445.403 185.812 445.415 185.75 445.415 185.687C445.415 185.624 445.403 185.561 445.378 185.503C445.353 185.445 445.318 185.392 445.272 185.348C444.788 184.776 444.169 184.331 443.471 184.055C442.774 183.779 442.019 183.679 441.273 183.764C441.211 183.774 441.152 183.796 441.098 183.829C441.045 183.862 440.998 183.906 440.962 183.957C440.925 184.008 440.898 184.065 440.884 184.127C440.869 184.188 440.867 184.251 440.877 184.313C440.887 184.375 440.91 184.435 440.943 184.488C440.976 184.542 441.019 184.588 441.07 184.625C441.121 184.662 441.179 184.688 441.24 184.703C441.301 184.717 441.365 184.719 441.427 184.709C442.015 184.652 442.608 184.739 443.155 184.961C443.703 185.184 444.188 185.536 444.57 185.987C444.63 186.056 444.709 186.107 444.798 186.132C444.886 186.157 444.98 186.155 445.068 186.128Z" fill="#263238"/>
<path d="M429.021 185.604C429.095 185.625 429.173 185.627 429.249 185.612C429.324 185.596 429.395 185.563 429.455 185.514C429.913 185.107 430.46 184.811 431.052 184.652C431.644 184.492 432.266 184.472 432.867 184.595C432.988 184.626 433.118 184.609 433.228 184.547C433.337 184.485 433.419 184.383 433.454 184.262C433.472 184.202 433.477 184.139 433.47 184.076C433.462 184.014 433.443 183.953 433.412 183.899C433.381 183.844 433.339 183.796 433.289 183.758C433.24 183.719 433.183 183.691 433.122 183.675C432.373 183.513 431.597 183.529 430.856 183.722C430.115 183.916 429.429 184.28 428.855 184.786C428.758 184.866 428.697 184.981 428.686 185.105C428.674 185.23 428.711 185.354 428.791 185.451C428.85 185.524 428.93 185.578 429.021 185.604Z" fill="#263238"/>
<path d="M445.656 258.008L440.06 254.532C439.662 254.284 439.218 254.117 438.754 254.041C438.291 253.966 437.817 253.983 437.36 254.093C436.904 254.202 436.474 254.401 436.095 254.678C435.716 254.956 435.396 255.306 435.154 255.708L434.502 256.807C434.113 257.447 433.937 258.195 434.002 258.941C434.066 259.688 434.367 260.395 434.86 260.959L438.693 265.392C438.693 265.392 442.053 273.224 445.95 271.155L448.914 266.044L445.656 258.008Z" fill="#FFC3BD"/>
<path d="M451.418 268.024C450.652 266.17 449.656 264.418 448.454 262.812C445.643 265.213 443.343 272.879 443.343 272.879L446.78 273.62C448.03 273.27 449.144 272.546 449.972 271.546C450.801 270.546 451.305 269.318 451.418 268.024Z" fill="#407BFF"/>
<path d="M494.232 325.174H427.897C423.553 325.174 420.742 329.479 421.611 334.795L429.89 384.968C430.771 390.283 435 394.588 439.357 394.588H486.017L494.232 325.174Z" fill="#407BFF"/>
<path opacity="0.5" d="M494.232 325.174H427.897C423.553 325.174 420.742 329.479 421.611 334.795L429.89 384.968C430.771 390.283 435 394.588 439.357 394.588H486.017L494.232 325.174Z" fill="white"/>
<path d="M188.172 458.548H190.088C190.427 458.548 190.752 458.413 190.992 458.174C191.231 457.934 191.366 457.609 191.366 457.27L201.868 298.97H193.96L186.933 457.091C186.907 457.27 186.92 457.453 186.97 457.626C187.021 457.8 187.107 457.961 187.225 458.098C187.342 458.236 187.487 458.347 187.65 458.425C187.813 458.502 187.991 458.544 188.172 458.548Z" fill="#407BFF"/>
<path opacity="0.3" d="M188.172 458.548H190.088C190.427 458.548 190.752 458.413 190.992 458.174C191.231 457.934 191.366 457.609 191.366 457.27L201.868 298.97H193.96L186.933 457.091C186.907 457.27 186.92 457.453 186.97 457.626C187.021 457.8 187.107 457.961 187.225 458.098C187.342 458.236 187.487 458.347 187.65 458.425C187.813 458.502 187.991 458.544 188.172 458.548Z" fill="white"/>
<path d="M166.452 458.548H168.368C168.707 458.548 169.032 458.413 169.272 458.174C169.511 457.934 169.646 457.609 169.646 457.27L180.148 298.97H172.227L165.213 457.091C165.187 457.27 165.2 457.453 165.25 457.626C165.301 457.8 165.387 457.961 165.505 458.098C165.622 458.236 165.767 458.347 165.93 458.425C166.093 458.502 166.271 458.544 166.452 458.548Z" fill="#407BFF"/>
<path opacity="0.3" d="M166.452 458.548H168.368C168.707 458.548 169.032 458.413 169.272 458.174C169.511 457.934 169.646 457.609 169.646 457.27L180.148 298.97H172.227L165.213 457.091C165.187 457.27 165.2 457.453 165.25 457.626C165.301 457.8 165.387 457.961 165.505 458.098C165.622 458.236 165.767 458.347 165.93 458.425C166.093 458.502 166.271 458.544 166.452 458.548Z" fill="white"/>
<path d="M434.31 458.548H432.394C432.055 458.548 431.73 458.413 431.491 458.174C431.251 457.934 431.116 457.609 431.116 457.27L420.614 298.97H428.523L435.55 457.091C435.575 457.27 435.562 457.453 435.512 457.626C435.461 457.8 435.375 457.961 435.258 458.098C435.141 458.236 434.996 458.347 434.832 458.425C434.669 458.502 434.491 458.544 434.31 458.548Z" fill="#407BFF"/>
<path opacity="0.3" d="M434.31 458.548H432.394C432.055 458.548 431.73 458.413 431.491 458.174C431.251 457.934 431.116 457.609 431.116 457.27L420.614 298.97H428.523L435.55 457.091C435.575 457.27 435.562 457.453 435.512 457.626C435.461 457.8 435.375 457.961 435.258 458.098C435.141 458.236 434.996 458.347 434.832 458.425C434.669 458.502 434.491 458.544 434.31 458.548Z" fill="white"/>
<path d="M456.031 458.548H454.114C453.775 458.548 453.45 458.413 453.211 458.174C452.971 457.934 452.836 457.609 452.836 457.27L442.334 298.97H450.256L457.27 457.091C457.295 457.27 457.282 457.453 457.232 457.626C457.182 457.8 457.095 457.961 456.978 458.098C456.861 458.236 456.716 458.347 456.553 458.425C456.389 458.502 456.211 458.544 456.031 458.548Z" fill="#407BFF"/>
<path opacity="0.3" d="M456.031 458.548H454.114C453.775 458.548 453.45 458.413 453.211 458.174C452.971 457.934 452.836 457.609 452.836 457.27L442.334 298.97H450.256L457.27 457.091C457.295 457.27 457.282 457.453 457.232 457.626C457.182 457.8 457.095 457.961 456.978 458.098C456.861 458.236 456.716 458.347 456.553 458.425C456.389 458.502 456.211 458.544 456.031 458.548Z" fill="white"/>
<path d="M465.166 295.75H156.87V299.008H465.166V295.75Z" fill="#407BFF"/>
<path d="M151.733 245.308L148.82 266.735C147.9 273.864 146.942 281.019 146.265 288.046C146.175 288.927 146.112 289.783 146.035 290.601L145.933 291.879C145.954 291.666 145.954 291.452 145.933 291.24C145.908 291.035 145.861 290.834 145.792 290.639C145.74 290.485 145.676 290.336 145.601 290.192C145.55 290.089 145.49 289.991 145.422 289.898C145.192 289.604 145.166 289.643 145.23 289.707C145.361 289.846 145.506 289.97 145.664 290.077C146.202 290.445 146.766 290.774 147.351 291.061C150.392 292.451 153.53 293.617 156.742 294.549C163.436 296.58 170.476 298.382 177.427 300.056L176.635 306.15C169.204 305.927 161.8 305.162 154.48 303.863C150.602 303.211 146.792 302.206 143.096 300.86C142.011 300.442 140.956 299.946 139.941 299.378C139.314 299.021 138.716 298.615 138.152 298.165C137.37 297.546 136.686 296.814 136.12 295.993C135.714 295.386 135.387 294.729 135.149 294.038C135.019 293.619 134.916 293.192 134.843 292.76C134.796 292.336 134.77 291.909 134.766 291.483V290.064C134.766 289.119 134.766 288.173 134.843 287.241C135.149 279.779 135.827 272.497 136.619 265.214C137.411 257.932 138.331 250.713 139.468 243.494L151.733 245.308Z" fill="#7F3E3B"/>
<path d="M193.448 306.636L188.759 310.916C188.223 311.403 187.554 311.719 186.837 311.824C186.12 311.929 185.388 311.817 184.735 311.504L179.56 309.012C179.56 309.012 171.895 308.693 170.783 304.004L172.776 300.362L184.671 299.085C185.892 298.954 187.122 299.227 188.172 299.864L193.078 302.867C193.386 303.062 193.646 303.325 193.838 303.636C194.029 303.947 194.147 304.297 194.183 304.661C194.219 305.024 194.171 305.391 194.044 305.733C193.917 306.075 193.713 306.384 193.448 306.636Z" fill="#7F3E3B"/>
<path d="M165.391 201.306C166.669 208.665 167.64 222.093 162.376 226.859C162.376 226.859 175.152 233.579 183.623 245.308C192.567 238.179 185.093 227.536 185.093 227.536C176.992 225.351 177.427 219.308 178.973 213.673L165.391 201.306Z" fill="#7F3E3B"/>
<path d="M189.398 232.008C189.398 232.008 188.721 225.773 185.322 222.694C182.473 220.139 167.435 221.544 162.746 222.068C162.311 222.12 161.896 222.281 161.538 222.535C161.181 222.79 160.894 223.13 160.702 223.525L157.278 230.679L189.398 232.008Z" fill="#407BFF"/>
<path opacity="0.8" d="M189.398 232.008C189.398 232.008 188.721 225.773 185.322 222.694C182.473 220.139 167.435 221.544 162.746 222.068C162.311 222.12 161.896 222.281 161.538 222.535C161.181 222.79 160.894 223.13 160.702 223.525L157.278 230.679L189.398 232.008Z" fill="white"/>
<path d="M147.862 228.699C138.612 231.715 136.619 244.121 137.462 253.767L156.128 265.266C156.128 265.266 160.664 251.211 160.626 243.648C160.587 235.65 154.148 226.681 147.862 228.699Z" fill="#407BFF"/>
<path d="M151.478 262.467C151.242 262.472 151.008 262.43 150.789 262.345C150.57 262.259 150.37 262.132 150.2 261.969C150.124 261.885 150.055 261.796 149.995 261.7C149.925 261.607 149.869 261.503 149.829 261.394C149.788 261.29 149.754 261.183 149.727 261.074C149.715 260.964 149.715 260.852 149.727 260.742C149.722 260.506 149.764 260.27 149.852 260.051C149.94 259.831 150.071 259.632 150.238 259.464C150.57 259.152 151.009 258.978 151.465 258.978C151.921 258.978 152.359 259.152 152.691 259.464C152.858 259.632 152.99 259.831 153.078 260.051C153.166 260.27 153.208 260.506 153.202 260.742C153.215 260.852 153.215 260.964 153.202 261.074C153.183 261.185 153.148 261.292 153.1 261.394C153.065 261.503 153.013 261.606 152.947 261.7L152.73 261.969C152.565 262.131 152.369 262.258 152.154 262.344C151.939 262.43 151.709 262.471 151.478 262.467Z" fill="white"/>
<path d="M147.888 261.292C147.57 261.169 147.295 260.956 147.098 260.679C146.9 260.402 146.788 260.073 146.776 259.733C146.526 259.96 146.214 260.108 145.879 260.158C145.545 260.208 145.204 260.158 144.898 260.014C144.592 259.871 144.335 259.644 144.156 259.358C143.977 259.072 143.884 258.741 143.889 258.404C143.626 258.617 143.305 258.746 142.968 258.776C142.632 258.806 142.294 258.734 141.998 258.57C141.701 258.412 141.457 258.17 141.296 257.875C141.135 257.58 141.063 257.245 141.09 256.909C140.814 257.104 140.486 257.214 140.148 257.225C139.81 257.237 139.476 257.149 139.187 256.973C138.795 256.735 138.513 256.351 138.403 255.906C138.293 255.461 138.364 254.99 138.599 254.597C138.84 254.204 139.226 253.922 139.673 253.812C140.12 253.702 140.593 253.773 140.988 254.009C141.259 254.18 141.48 254.421 141.626 254.707C141.772 254.992 141.838 255.312 141.819 255.632C142.08 255.444 142.388 255.334 142.709 255.314C143.03 255.293 143.35 255.364 143.633 255.517C143.916 255.669 144.151 255.896 144.313 256.173C144.476 256.451 144.558 256.767 144.553 257.088C144.803 256.888 145.105 256.762 145.423 256.724C145.741 256.685 146.064 256.736 146.354 256.871C146.645 257.005 146.893 257.217 147.071 257.483C147.25 257.749 147.351 258.059 147.364 258.379C147.605 258.168 147.899 258.027 148.214 257.971C148.529 257.915 148.853 257.945 149.152 258.059C149.578 258.23 149.92 258.562 150.101 258.983C150.283 259.405 150.291 259.881 150.123 260.308C149.997 260.632 149.776 260.91 149.489 261.106C149.201 261.303 148.861 261.407 148.514 261.407C148.3 261.404 148.088 261.365 147.888 261.292Z" fill="white"/>
<path d="M137.462 255.529C137.347 255.542 137.232 255.542 137.117 255.529C137.007 255.51 136.899 255.475 136.798 255.427C136.688 255.392 136.585 255.34 136.491 255.274L136.235 255.057C136.153 254.981 136.08 254.895 136.018 254.801C136.018 254.699 135.903 254.597 135.852 254.495C135.812 254.39 135.778 254.283 135.75 254.175C135.744 254.06 135.744 253.945 135.75 253.83C135.743 253.72 135.743 253.609 135.75 253.498C135.778 253.386 135.812 253.275 135.852 253.166C135.894 253.061 135.95 252.962 136.018 252.872C136.083 252.776 136.156 252.687 136.235 252.604L136.491 252.386C136.588 252.325 136.691 252.274 136.798 252.233L137.117 252.131C137.396 252.081 137.682 252.097 137.953 252.18C138.224 252.262 138.472 252.407 138.676 252.604C138.756 252.687 138.828 252.776 138.893 252.872C138.956 252.965 139.011 253.064 139.059 253.166C139.101 253.273 139.131 253.384 139.149 253.498C139.162 253.608 139.162 253.72 139.149 253.83C139.161 253.945 139.161 254.06 139.149 254.175C139.131 254.285 139.101 254.392 139.059 254.495C139.059 254.597 138.957 254.699 138.893 254.801C138.831 254.895 138.759 254.981 138.676 255.057C138.347 255.365 137.912 255.534 137.462 255.529Z" fill="white"/>
<path d="M206.685 246.753C205.905 257.383 203.542 275.27 197.741 305.397L147.734 303.915C149.012 285.453 147.057 271.693 142.534 239.381C142.342 237.983 142.432 236.56 142.801 235.198C143.17 233.836 143.809 232.562 144.681 231.452C145.552 230.342 146.638 229.419 147.874 228.738C149.11 228.056 150.47 227.63 151.874 227.486C155.081 227.154 158.735 226.885 162.402 226.809C169.98 226.495 177.572 226.721 185.118 227.486C187.546 227.78 190.063 228.176 192.465 228.585C196.67 229.301 200.458 231.56 203.088 234.919C205.717 238.279 207 242.498 206.685 246.753Z" fill="#407BFF"/>
<path d="M191.264 187.815C191.379 188.798 192.005 189.539 192.643 189.45C193.282 189.361 193.717 188.517 193.602 187.533C193.487 186.55 192.861 185.809 192.222 185.885C191.583 185.962 191.149 186.792 191.264 187.815Z" fill="#263238"/>
<path d="M191.941 185.949L194.228 184.978C194.228 184.978 193.231 186.971 191.941 185.949Z" fill="#263238"/>
<path d="M191.647 189.31C192.794 191.454 194.23 193.432 195.914 195.187C195.456 195.608 194.91 195.924 194.317 196.112C193.723 196.299 193.095 196.354 192.477 196.273L191.647 189.31Z" fill="#630F0F"/>
<path d="M191.379 179.14C191.429 179.05 191.456 178.949 191.456 178.846C191.456 178.743 191.429 178.642 191.379 178.552C191.31 178.414 191.19 178.309 191.044 178.259C190.898 178.208 190.738 178.217 190.599 178.284C189.752 178.66 189.008 179.236 188.429 179.961C187.851 180.686 187.456 181.539 187.277 182.449C187.267 182.525 187.271 182.602 187.29 182.676C187.31 182.749 187.344 182.819 187.39 182.879C187.436 182.94 187.494 182.991 187.561 183.029C187.627 183.067 187.7 183.091 187.776 183.101C187.851 183.111 187.928 183.107 188.002 183.088C188.076 183.068 188.145 183.035 188.206 182.988C188.267 182.942 188.318 182.884 188.356 182.818C188.394 182.751 188.418 182.678 188.427 182.602C188.583 181.885 188.906 181.215 189.37 180.647C189.834 180.078 190.426 179.627 191.098 179.332C191.211 179.304 191.311 179.236 191.379 179.14Z" fill="#263238"/>
<path d="M157.227 187.559C159.425 199.581 160.102 204.717 166.963 210.211C177.286 218.465 191.583 213.137 193.027 200.693C194.304 189.488 190.471 171.703 178.078 168.304C175.339 167.543 172.451 167.493 169.687 168.161C166.924 168.83 164.377 170.193 162.288 172.121C160.199 174.05 158.638 176.481 157.752 179.183C156.866 181.884 156.686 184.767 157.227 187.559Z" fill="#7F3E3B"/>
<path d="M183.725 190.932C185.744 197.537 190.574 213.508 179.893 217.072C171.55 219.858 145.396 222.081 142.394 206.762C139.289 190.932 153.407 179.65 153.407 179.65C153.407 179.65 142.215 170.476 149.382 160.485C158.62 147.607 180.749 154.889 187.303 163.986C193.704 172.84 183.725 190.932 183.725 190.932Z" fill="#263238"/>
<path d="M163.539 219.27C158.72 219.264 153.948 218.327 149.485 216.51C143.556 213.955 140.094 210.007 139.468 205.088C137.373 188.389 152.909 179.215 153.075 179.126L153.688 180.186C153.535 180.276 138.701 189.053 140.695 204.934C141.41 210.569 146.137 213.725 149.983 215.373C157.572 218.644 167.372 218.618 169.748 216.88L170.476 217.877C169.275 218.784 166.669 219.27 163.539 219.27Z" fill="#263238"/>
<path d="M148.603 177.261C148.463 179.394 146.699 182.371 154.097 183.432C161.495 184.492 171.792 184.428 173.913 182.652C176.034 180.877 178.104 176.609 173.683 176.992C169.263 177.376 148.846 173.607 148.603 177.261Z" fill="#407BFF"/>
<path d="M179.675 192.81C180.883 195.042 182.921 196.708 185.348 197.448C188.568 198.394 190.229 195.519 189.373 192.453C188.593 189.693 185.974 185.873 182.729 186.269C179.484 186.665 178.232 190.063 179.675 192.81Z" fill="#7F3E3B"/>
<path d="M257.625 445.337L269.481 445.107L263.744 415.517L251.888 415.734L257.625 445.337Z" fill="#7F3E3B"/>
<path d="M266.517 432.445C269.647 444.264 281.184 456.721 281.184 456.721L264.728 452.53L257.535 442.309L258.813 439.6L266.517 432.445Z" fill="#7F3E3B"/>
<path d="M254.827 437.939C254.793 439.323 254.874 440.708 255.069 442.079C255.772 446.959 257.919 459.966 257.919 459.966H259.043C258.535 456.006 258.232 452.023 258.136 448.032C258.289 444.825 260.359 450.498 262.863 453.718C265.367 456.938 269.877 459.863 277.173 460.106C285.707 460.374 289.119 460.017 286.385 457.883C283.65 455.749 277.824 454.369 277.824 454.369C273.125 452.357 269.125 449.001 266.325 444.723C263.564 440.879 259.935 437.741 255.734 435.562C255.018 435.601 254.878 436.955 254.827 437.939Z" fill="#263238"/>
<path d="M299.621 405.13L314.748 405.602L297.819 380.433L287.343 389.389L299.621 405.13Z" fill="#7F3E3B"/>
<path d="M303.211 394.448C314.211 399.559 331.817 398.562 331.817 398.562L317.508 410.061L305.23 409.141L303.952 406.42L303.211 394.448Z" fill="#7F3E3B"/>
<path d="M300.886 407.493C301.877 408.456 302.945 409.337 304.08 410.125C308.091 412.923 318.939 420.091 318.939 420.091L319.629 419.209C316.398 416.888 313.289 414.402 310.315 411.761C308.04 409.435 313.496 411.697 317.405 411.927C321.315 412.157 326.247 410.649 330.91 405.027C336.391 398.499 338.218 395.573 334.973 396.263C331.728 396.953 327.103 400.581 327.103 400.581C322.759 402.907 317.783 403.776 312.908 403.06C308.38 402.599 303.81 403.307 299.633 405.117C299.288 405.756 300.145 406.752 300.886 407.493Z" fill="#263238"/>
<path d="M180.276 304.527C180.276 304.527 261.227 292.581 269.583 313.305C284.174 349.411 304.757 390.781 304.757 390.781L294.817 399.009C294.817 399.009 259.515 366.327 246.969 330.016C231.969 334.871 184.249 350.459 166.771 350.459C148.105 350.459 140.477 334.552 147.223 308.118C147.518 306.985 148.179 305.981 149.104 305.263C150.028 304.544 151.163 304.151 152.334 304.144C164.177 304.259 180.276 304.527 180.276 304.527Z" fill="#263238"/>
<path d="M188.031 315.068C188.031 315.068 254.469 313.075 255.044 336.609C255.964 375.539 266.939 431.321 266.939 431.321L254.814 432.445C254.814 432.445 234.998 388.073 229.759 350.075C206.097 351.608 184.275 350.548 166.797 350.548C147.21 350.548 145.588 329.045 164.65 303.939C176.315 303.914 188.031 315.068 188.031 315.068Z" fill="#263238"/>
<path d="M147.044 300.949L145.652 305.357C145.46 305.702 145.856 306.06 146.444 306.085L197.908 307.606C198.355 307.606 198.738 307.414 198.776 307.133L199.364 302.674C199.364 302.355 199.019 302.086 198.521 302.074L147.888 300.566C147.726 300.548 147.562 300.574 147.413 300.642C147.265 300.709 147.138 300.815 147.044 300.949Z" fill="white"/>
<path d="M153.675 306.814H152.321C152.053 306.814 151.848 306.661 151.874 306.495L152.679 300.694C152.679 300.528 152.947 300.4 153.215 300.4H154.57C154.838 300.4 155.042 300.554 155.017 300.72L154.212 306.508C154.186 306.699 153.944 306.827 153.675 306.814Z" fill="#263238"/>
<path d="M194.062 308.028H192.707C192.439 308.028 192.235 307.875 192.26 307.709L193.078 301.908C193.078 301.742 193.333 301.614 193.602 301.614H194.956C195.237 301.614 195.429 301.768 195.416 301.934L194.598 307.734C194.573 307.913 194.343 308.028 194.062 308.028Z" fill="#263238"/>
<path d="M173.875 307.415H172.521C172.239 307.415 172.048 307.261 172.073 307.095L172.878 301.295C172.878 301.129 173.147 301.001 173.415 301.001H174.769C175.037 301.001 175.242 301.154 175.216 301.32L174.411 307.121C174.386 307.3 174.143 307.428 173.875 307.415Z" fill="#263238"/>
<path d="M235.509 251.198H267.82C268.06 251.199 268.297 251.256 268.512 251.363C268.727 251.471 268.914 251.626 269.059 251.818C269.203 252.01 269.302 252.232 269.346 252.468C269.391 252.704 269.38 252.947 269.315 253.179L257.229 294.638C257.137 294.96 256.942 295.243 256.674 295.443C256.407 295.644 256.081 295.752 255.746 295.75H223.422C223.181 295.752 222.943 295.698 222.727 295.591C222.511 295.484 222.323 295.328 222.179 295.135C222.035 294.942 221.938 294.718 221.896 294.481C221.855 294.244 221.87 294 221.94 293.769L234.014 252.31C234.108 251.987 234.305 251.704 234.575 251.504C234.845 251.303 235.172 251.196 235.509 251.198Z" fill="#407BFF"/>
<path d="M236.096 252.719L267.514 253.46L255.108 292.569L223.69 291.815L236.096 252.719Z" fill="#E0E0E0"/>
<path d="M235.113 252.336L266.53 252.464L254.89 291.802L223.473 291.675L235.113 252.336Z" fill="white"/>
<path d="M206.774 253.153C206.774 254.431 206.966 255.939 207.068 257.357C207.17 258.775 207.362 260.257 207.554 261.701C207.911 264.588 208.388 267.433 208.985 270.235C209.558 272.967 210.318 275.657 211.259 278.285C211.732 279.562 212.255 280.84 212.818 281.964C213.099 282.552 213.405 283.101 213.712 283.664L214.185 284.443C214.771 284.977 215.463 285.381 216.216 285.631C217.412 286.095 218.643 286.467 219.896 286.743C222.717 287.338 225.571 287.765 228.443 288.02C234.346 288.595 240.517 288.876 246.547 289.004L247.161 295.124C240.882 296.37 234.51 297.092 228.111 297.283C224.788 297.386 221.462 297.249 218.158 296.874C216.348 296.653 214.558 296.29 212.805 295.788C210.563 295.195 208.479 294.118 206.698 292.633C206.101 292.117 205.562 291.538 205.088 290.908L204.27 289.758C203.746 288.991 203.235 288.225 202.801 287.445C201.89 285.926 201.084 284.346 200.386 282.718C199.022 279.595 197.919 276.364 197.09 273.059C196.263 269.846 195.627 266.586 195.186 263.298C194.969 261.675 194.803 260.04 194.662 258.392C194.522 256.743 194.432 255.172 194.407 253.281L206.774 253.153Z" fill="#7F3E3B"/>
<path d="M202.571 234.307C210.62 241.884 208.678 261.624 208.678 261.624L193.27 264.319C193.27 264.319 183.751 250.163 187.099 244.235C190.574 238.051 198.227 230.206 202.571 234.307Z" fill="#407BFF"/>
<path d="M208.678 263.362C208.442 263.366 208.207 263.323 207.988 263.235C207.768 263.148 207.569 263.017 207.4 262.851C207.318 262.77 207.245 262.68 207.183 262.583C207.125 262.489 207.073 262.391 207.03 262.289C207.004 262.167 206.987 262.043 206.979 261.918C206.972 261.808 206.972 261.697 206.979 261.586C206.971 261.351 207.011 261.116 207.097 260.896C207.182 260.676 207.312 260.477 207.477 260.308C207.561 260.229 207.65 260.157 207.745 260.091C207.836 260.028 207.935 259.976 208.039 259.938C208.146 259.892 208.257 259.858 208.371 259.836C208.622 259.787 208.881 259.794 209.129 259.857C209.377 259.919 209.608 260.036 209.806 260.198C210.004 260.361 210.163 260.565 210.273 260.796C210.383 261.027 210.44 261.279 210.441 261.535C210.454 261.645 210.454 261.757 210.441 261.867C210.421 261.982 210.386 262.093 210.339 262.199C210.301 262.304 210.249 262.402 210.186 262.493C210.124 262.591 210.051 262.681 209.968 262.762C209.807 262.946 209.609 263.095 209.387 263.199C209.165 263.302 208.923 263.358 208.678 263.362Z" fill="white"/>
<path d="M194.675 264.281C194.636 263.822 194.781 263.366 195.078 263.014C195.375 262.662 195.8 262.442 196.259 262.403C196.579 262.373 196.901 262.434 197.188 262.579C197.475 262.724 197.715 262.946 197.882 263.221C197.985 262.917 198.169 262.646 198.414 262.439C198.66 262.232 198.957 262.096 199.274 262.045C199.593 262.002 199.918 262.048 200.213 262.176C200.508 262.304 200.762 262.511 200.948 262.774C201.021 262.463 201.179 262.178 201.405 261.953C201.63 261.727 201.915 261.569 202.226 261.496C202.541 261.43 202.869 261.454 203.171 261.564C203.474 261.675 203.739 261.868 203.938 262.122C204.013 261.812 204.172 261.529 204.398 261.304C204.623 261.079 204.906 260.92 205.216 260.844C205.439 260.785 205.672 260.772 205.9 260.804C206.129 260.837 206.348 260.915 206.546 261.034C206.744 261.154 206.916 261.311 207.052 261.498C207.187 261.685 207.284 261.897 207.336 262.122C207.394 262.345 207.406 262.578 207.372 262.806C207.339 263.033 207.26 263.253 207.142 263.45C207.023 263.647 206.866 263.819 206.68 263.955C206.494 264.091 206.283 264.189 206.059 264.243C205.733 264.327 205.389 264.315 205.07 264.208C204.75 264.102 204.468 263.905 204.257 263.642C204.185 263.973 204.019 264.276 203.779 264.514C203.538 264.752 203.234 264.915 202.903 264.984C202.571 265.046 202.229 265.011 201.917 264.884C201.604 264.758 201.334 264.544 201.14 264.268C201.055 264.597 200.876 264.894 200.624 265.121C200.371 265.349 200.058 265.496 199.722 265.546C199.387 265.594 199.046 265.544 198.739 265.401C198.433 265.258 198.175 265.029 197.997 264.741C197.887 265.06 197.688 265.341 197.423 265.55C197.158 265.758 196.838 265.886 196.502 265.917H196.361C195.928 265.902 195.515 265.726 195.203 265.424C194.891 265.122 194.703 264.714 194.675 264.281Z" fill="white"/>
<path d="M193.27 266.058C193.155 266.071 193.039 266.071 192.925 266.058L192.605 265.956C192.499 265.913 192.397 265.861 192.298 265.803L192.043 265.585C191.957 265.508 191.884 265.417 191.826 265.317C191.763 265.224 191.707 265.125 191.66 265.023C191.618 264.916 191.588 264.805 191.57 264.691C191.557 264.581 191.557 264.469 191.57 264.359C191.558 264.244 191.558 264.129 191.57 264.014C191.588 263.904 191.618 263.797 191.66 263.694C191.66 263.592 191.762 263.49 191.826 263.388C191.887 263.294 191.96 263.208 192.043 263.132L192.298 262.915C192.394 262.851 192.497 262.8 192.605 262.762C192.707 262.714 192.814 262.679 192.925 262.66C193.203 262.603 193.492 262.616 193.764 262.699C194.036 262.781 194.283 262.93 194.483 263.132C194.566 263.208 194.639 263.294 194.7 263.388C194.764 263.49 194.815 263.592 194.867 263.694C194.906 263.799 194.941 263.906 194.969 264.014C194.975 264.129 194.975 264.244 194.969 264.359C194.976 264.469 194.976 264.58 194.969 264.691C194.941 264.804 194.906 264.914 194.867 265.023C194.819 265.125 194.763 265.224 194.7 265.317C194.639 265.415 194.566 265.505 194.483 265.585C194.155 265.893 193.72 266.063 193.27 266.058Z" fill="white"/>
<path d="M260.895 282.641L255.555 282.283C254.225 282.19 252.902 282.545 251.799 283.293L241.999 289.872L241.922 294.025C245.065 297.679 252.016 294.408 252.016 294.408L258.468 294.191C258.982 294.178 259.48 294.01 259.897 293.709C260.315 293.408 260.631 292.988 260.806 292.504L263.144 286.116C263.29 285.74 263.345 285.334 263.303 284.932C263.262 284.53 263.126 284.144 262.907 283.805C262.687 283.465 262.391 283.183 262.041 282.981C261.691 282.779 261.299 282.662 260.895 282.641Z" fill="#7F3E3B"/>
<path d="M150.238 464.31H151.682C151.982 464.281 152.261 464.147 152.471 463.932C152.682 463.717 152.809 463.434 152.832 463.134L161.776 401.245H155.017L149.127 462.726C149.092 462.903 149.093 463.085 149.131 463.262C149.168 463.439 149.241 463.606 149.345 463.754C149.449 463.902 149.582 464.028 149.735 464.123C149.889 464.219 150.06 464.282 150.238 464.31Z" fill="#407BFF"/>
<path opacity="0.3" d="M150.238 464.31H151.682C151.982 464.281 152.261 464.147 152.471 463.932C152.682 463.717 152.809 463.434 152.832 463.134L161.776 401.245H155.017L149.127 462.726C149.092 462.903 149.093 463.085 149.131 463.262C149.168 463.439 149.241 463.606 149.345 463.754C149.449 463.902 149.582 464.028 149.735 464.123C149.889 464.219 150.06 464.282 150.238 464.31Z" fill="black"/>
<path d="M131.713 464.31H133.156C133.456 464.281 133.735 464.147 133.946 463.932C134.156 463.717 134.284 463.434 134.306 463.134L143.25 401.245H136.491L130.601 462.726C130.566 462.903 130.568 463.085 130.605 463.262C130.643 463.439 130.715 463.606 130.819 463.754C130.923 463.902 131.056 464.028 131.209 464.123C131.363 464.219 131.534 464.282 131.713 464.31Z" fill="#407BFF"/>
<path opacity="0.3" d="M131.713 464.31H133.156C133.456 464.281 133.735 464.147 133.946 463.932C134.156 463.717 134.284 463.434 134.306 463.134L143.25 401.245H136.491L130.601 462.726C130.566 462.903 130.568 463.085 130.605 463.262C130.643 463.439 130.715 463.606 130.819 463.754C130.923 463.902 131.056 464.028 131.209 464.123C131.363 464.219 131.534 464.282 131.713 464.31Z" fill="black"/>
<path d="M234.946 464.31H233.49C233.193 464.278 232.916 464.143 232.709 463.928C232.501 463.713 232.375 463.432 232.353 463.134L223.409 401.245H230.155L236.045 462.726C236.08 462.902 236.079 463.084 236.042 463.26C236.006 463.436 235.934 463.603 235.831 463.75C235.729 463.898 235.598 464.024 235.446 464.12C235.294 464.216 235.124 464.281 234.946 464.31Z" fill="#407BFF"/>
<path opacity="0.3" d="M234.946 464.31H233.49C233.193 464.278 232.916 464.143 232.709 463.928C232.501 463.713 232.375 463.432 232.353 463.134L223.409 401.245H230.155L236.045 462.726C236.08 462.902 236.079 463.084 236.042 463.26C236.006 463.436 235.934 463.603 235.831 463.75C235.729 463.898 235.598 464.024 235.446 464.12C235.294 464.216 235.124 464.281 234.946 464.31Z" fill="black"/>
<path d="M253.472 464.31H252.016C251.719 464.278 251.442 464.143 251.234 463.928C251.027 463.713 250.901 463.432 250.879 463.134L241.935 401.245H248.681L254.571 462.726C254.606 462.902 254.605 463.084 254.568 463.26C254.532 463.436 254.46 463.603 254.357 463.75C254.255 463.898 254.124 464.024 253.972 464.12C253.82 464.216 253.65 464.281 253.472 464.31Z" fill="#407BFF"/>
<path opacity="0.3" d="M253.472 464.31H252.016C251.719 464.278 251.442 464.143 251.234 463.928C251.027 463.713 250.901 463.432 250.879 463.134L241.935 401.245H248.681L254.571 462.726C254.606 462.902 254.605 463.084 254.568 463.26C254.532 463.436 254.46 463.603 254.357 463.75C254.255 463.898 254.124 464.024 253.972 464.12C253.82 464.216 253.65 464.281 253.472 464.31Z" fill="black"/>
<path d="M277.479 327.883H231.995C223.92 299.851 194.943 277.748 165.149 277.748H150.379C119.256 277.748 99.1709 302.023 105.508 331.844C106.708 337.339 108.655 342.643 111.296 347.61L118.476 391.05C119.396 396.659 123.881 401.207 128.467 401.207H265.38C269.967 401.207 274.451 396.659 275.371 391.05L284.123 338.002C285.056 332.431 282.079 327.883 277.479 327.883Z" fill="#407BFF"/>
<path opacity="0.5" d="M277.479 327.883H231.995C223.92 299.851 194.943 277.748 165.149 277.748H150.379C119.256 277.748 99.1709 302.023 105.508 331.844C106.708 337.339 108.655 342.643 111.296 347.61L118.476 391.05C119.396 396.659 123.881 401.207 128.467 401.207H265.38C269.967 401.207 274.451 396.659 275.371 391.05L284.123 338.002C285.056 332.431 282.079 327.883 277.479 327.883Z" fill="white"/>
<path d="M271.551 124.124H261.113V125.402H271.551V124.124Z" fill="#407BFF"/>
<path d="M222.719 139.175H221.442V132.876C221.445 130.55 222.371 128.321 224.017 126.678C225.663 125.034 227.893 124.111 230.219 124.111H253.511V125.389H230.219C228.232 125.389 226.327 126.177 224.92 127.581C223.514 128.985 222.723 130.889 222.719 132.876V139.175Z" fill="#407BFF"/>
<path d="M230.219 128.596H346.702C347.841 128.596 348.932 129.048 349.738 129.853C350.543 130.658 350.995 131.75 350.995 132.889V178.564C350.995 179.706 350.541 180.802 349.734 181.609C348.926 182.417 347.831 182.87 346.689 182.87H230.219C229.077 182.87 227.982 182.417 227.174 181.609C226.367 180.802 225.913 179.706 225.913 178.564V132.876C225.915 132.312 226.028 131.754 226.245 131.234C226.462 130.714 226.78 130.241 227.18 129.844C227.58 129.447 228.054 129.132 228.575 128.918C229.097 128.703 229.655 128.594 230.219 128.596Z" fill="#407BFF"/>
<path d="M341.195 158.621H235.726C234.96 158.621 234.225 158.316 233.684 157.775C233.142 157.233 232.838 156.499 232.838 155.733C232.838 154.967 233.142 154.233 233.684 153.691C234.225 153.15 234.96 152.846 235.726 152.846H341.195C341.961 152.846 342.696 153.15 343.237 153.691C343.779 154.233 344.083 154.967 344.083 155.733C344.083 156.499 343.779 157.233 343.237 157.775C342.696 158.316 341.961 158.621 341.195 158.621Z" fill="white"/>
<path d="M318.619 170.618H235.726C234.96 170.618 234.225 170.314 233.684 169.772C233.142 169.231 232.838 168.496 232.838 167.73C232.835 167.349 232.907 166.971 233.051 166.618C233.194 166.264 233.406 165.943 233.675 165.672C233.943 165.401 234.263 165.186 234.615 165.04C234.967 164.893 235.344 164.817 235.726 164.817H318.619C319.385 164.817 320.12 165.122 320.661 165.663C321.203 166.205 321.507 166.939 321.507 167.705C321.51 168.086 321.438 168.464 321.294 168.818C321.151 169.171 320.939 169.492 320.67 169.763C320.402 170.034 320.082 170.249 319.73 170.396C319.378 170.542 319.001 170.618 318.619 170.618Z" fill="white"/>
<path d="M271.295 146.624H235.726C234.96 146.624 234.225 146.319 233.684 145.778C233.142 145.236 232.838 144.502 232.838 143.736C232.838 142.97 233.142 142.236 233.684 141.694C234.225 141.153 234.96 140.849 235.726 140.849H271.295C272.061 140.849 272.796 141.153 273.337 141.694C273.879 142.236 274.183 142.97 274.183 143.736C274.183 144.502 273.879 145.236 273.337 145.778C272.796 146.319 272.061 146.624 271.295 146.624Z" fill="white"/>
<path d="M318.441 146.624H282.871C282.105 146.624 281.371 146.319 280.829 145.778C280.288 145.236 279.983 144.502 279.983 143.736C279.983 142.97 280.288 142.236 280.829 141.694C281.371 141.153 282.105 140.849 282.871 140.849H318.441C319.206 140.849 319.941 141.153 320.482 141.694C321.024 142.236 321.328 142.97 321.328 143.736C321.328 144.502 321.024 145.236 320.482 145.778C319.941 146.319 319.206 146.624 318.441 146.624Z" fill="white"/>
<path d="M232.838 179.408V193.245C232.838 193.838 233.003 194.42 233.315 194.924C233.627 195.429 234.073 195.837 234.604 196.102C235.134 196.367 235.728 196.48 236.319 196.426C236.91 196.373 237.474 196.156 237.949 195.8L259.158 179.396L232.838 179.408Z" fill="#407BFF"/>
<path d="M412.437 60.0498H295.954C295.389 60.0498 294.829 60.1612 294.306 60.3776C293.784 60.5939 293.309 60.9111 292.91 61.3109C292.51 61.7107 292.193 62.1854 291.976 62.7078C291.76 63.2302 291.648 63.79 291.648 64.3555V110.031C291.648 111.173 292.102 112.268 292.91 113.076C293.717 113.883 294.812 114.337 295.954 114.337H387.945L404.631 127.241C405.105 127.597 405.67 127.814 406.26 127.867C406.851 127.92 407.445 127.808 407.976 127.543C408.506 127.278 408.952 126.87 409.264 126.365C409.576 125.861 409.741 125.279 409.741 124.686V114.311H412.36C413.502 114.311 414.598 113.858 415.405 113.05C416.213 112.243 416.666 111.148 416.666 110.006V64.3555C416.666 63.2267 416.223 62.143 415.432 61.3377C414.641 60.5324 413.566 60.0699 412.437 60.0498Z" fill="white"/>
<path d="M406.611 128.557C405.761 128.552 404.935 128.269 404.26 127.752L387.753 114.976H295.954C294.644 114.973 293.388 114.451 292.461 113.524C291.535 112.598 291.013 111.342 291.01 110.031V64.3556C291.013 63.0453 291.535 61.7896 292.461 60.8631C293.388 59.9365 294.644 59.4145 295.954 59.4111H412.437C413.747 59.4145 415.003 59.9365 415.93 60.8631C416.856 61.7896 417.378 63.0453 417.382 64.3556V110.031C417.378 111.342 416.856 112.598 415.93 113.524C415.003 114.451 413.747 114.973 412.437 114.976H410.457V124.712C410.457 125.728 410.053 126.703 409.334 127.422C408.615 128.141 407.64 128.545 406.624 128.545L406.611 128.557ZM295.954 60.6888C294.983 60.6921 294.052 61.0796 293.365 61.7665C292.678 62.4534 292.291 63.3842 292.287 64.3556V110.031C292.291 111.003 292.678 111.934 293.365 112.621C294.052 113.308 294.983 113.695 295.954 113.698H388.2L405.014 126.73C405.391 127.029 405.846 127.214 406.324 127.266C406.802 127.318 407.286 127.233 407.718 127.022C408.151 126.811 408.515 126.483 408.769 126.074C409.023 125.665 409.156 125.193 409.153 124.712V113.711H412.412C413.383 113.708 414.314 113.32 415.001 112.633C415.688 111.946 416.075 111.016 416.078 110.044V64.3556C416.075 63.3842 415.688 62.4534 415.001 61.7665C414.314 61.0796 413.383 60.6921 412.412 60.6888H295.954Z" fill="#407BFF"/>
<path d="M351.71 90.0874H406.93C407.31 90.0874 407.685 90.0127 408.035 89.8676C408.386 89.7225 408.704 89.5098 408.972 89.2417C409.24 88.9735 409.453 88.6552 409.598 88.3049C409.743 87.9546 409.818 87.5791 409.818 87.1999C409.811 86.4373 409.504 85.7081 408.964 85.1701C408.424 84.6321 407.693 84.3285 406.93 84.3252H351.71C350.944 84.3286 350.209 84.6356 349.668 85.1792C349.127 85.7227 348.823 86.4585 348.823 87.2254C348.83 87.9868 349.137 88.7147 349.678 89.2507C350.218 89.7867 350.949 90.0874 351.71 90.0874Z" fill="#407BFF"/>
<path d="M313.151 90.0874H340.493C340.872 90.0874 341.247 90.0127 341.598 89.8676C341.948 89.7225 342.266 89.5098 342.534 89.2417C342.802 88.9735 343.015 88.6552 343.16 88.3049C343.305 87.9546 343.38 87.5791 343.38 87.1999C343.373 86.4373 343.067 85.7081 342.526 85.1701C341.986 84.6321 341.255 84.3285 340.493 84.3252H313.151C312.384 84.3286 311.65 84.6356 311.108 85.1792C310.567 85.7227 310.263 86.4585 310.263 87.2254C310.27 87.9868 310.577 88.7147 311.118 89.2507C311.659 89.7867 312.39 90.0874 313.151 90.0874Z" fill="#407BFF"/>
<path d="M324.024 102.084L406.93 102.084C408.525 102.084 409.818 100.791 409.818 99.1965C409.818 97.6018 408.525 96.309 406.93 96.309L324.024 96.309C322.429 96.309 321.136 97.6018 321.136 99.1965C321.136 100.791 322.429 102.084 324.024 102.084Z" fill="#407BFF"/>
<path d="M301.524 78.0905H406.93C407.696 78.0905 408.431 77.7863 408.972 77.2448C409.514 76.7032 409.818 75.9688 409.818 75.203C409.818 74.436 409.514 73.7002 408.973 73.1567C408.432 72.6132 407.697 72.3061 406.93 72.3027H301.524C300.757 72.3061 300.023 72.6132 299.482 73.1567C298.941 73.7002 298.637 74.436 298.637 75.203C298.637 75.9688 298.941 76.7032 299.483 77.2448C300.024 77.7863 300.759 78.0905 301.524 78.0905Z" fill="#407BFF"/>
</svg>
