<svg width="978" height="729" viewBox="0 0 978 729" fill="none" xmlns="http://www.w3.org/2000/svg">
<path d="M978 640.395H0V640.884H978V640.395Z" fill="#EBEBEB"/>
<path d="M880.004 671.866H815.222V672.355H880.004V671.866Z" fill="#EBEBEB"/>
<path d="M790.596 671.866H652.091V672.355H790.596V671.866Z" fill="#EBEBEB"/>
<path d="M575.709 653.715H538.174V654.204H575.709V653.715Z" fill="#EBEBEB"/>
<path d="M169.683 657.001H102.612V657.49H169.683V657.001Z" fill="#EBEBEB"/>
<path d="M309.048 657.001H187.091V657.49H309.048V657.001Z" fill="#EBEBEB"/>
<path d="M440.374 665.255H368.374V665.744H440.374V665.255Z" fill="#EBEBEB"/>
<path d="M463.572 553.157H85.888C82.9292 553.152 80.0934 551.973 78.0031 549.879C75.9128 547.785 74.7388 544.947 74.7388 541.988V11.071C74.7645 8.12919 75.9499 5.31637 78.0375 3.24348C80.125 1.17058 82.9461 0.00503941 85.888 0H463.572C466.534 0 469.375 1.17671 471.47 3.27125C473.564 5.3658 474.741 8.20662 474.741 11.1688V541.988C474.741 544.95 473.564 547.791 471.47 549.886C469.375 551.98 466.534 553.157 463.572 553.157ZM85.888 0.391202C83.0589 0.396383 80.3475 1.52385 78.3489 3.52613C76.3503 5.52842 75.2278 8.2419 75.2278 11.071V541.988C75.2278 544.817 76.3503 547.531 78.3489 549.533C80.3475 551.535 83.0589 552.663 85.888 552.668H463.572C466.403 552.663 469.116 551.536 471.118 549.534C473.12 547.532 474.247 544.819 474.252 541.988V11.071C474.247 8.2401 473.12 5.52666 471.118 3.52494C469.116 1.52322 466.403 0.396372 463.572 0.391202H85.888Z" fill="#EBEBEB"/>
<path d="M886.674 553.157H508.971C506.01 553.152 503.172 551.973 501.079 549.88C498.986 547.786 497.807 544.949 497.802 541.988V11.071C497.833 8.1274 499.023 5.3146 501.113 3.24225C503.204 1.1699 506.027 0.00498446 508.971 0H886.674C889.613 0.01018 892.429 1.178 894.512 3.25034C896.596 5.32268 897.778 8.13256 897.804 11.071V541.988C897.804 544.943 896.633 547.778 894.547 549.872C892.461 551.965 889.63 553.146 886.674 553.157ZM508.971 0.391202C506.14 0.396372 503.426 1.52322 501.425 3.52494C499.423 5.52666 498.296 8.2401 498.291 11.071V541.988C498.296 544.819 499.423 547.532 501.425 549.534C503.426 551.536 506.14 552.663 508.971 552.668H886.674C889.505 552.663 892.219 551.536 894.22 549.534C896.222 547.532 897.349 544.819 897.354 541.988V11.071C897.349 8.2401 896.222 5.52666 894.22 3.52494C892.219 1.52322 889.505 0.396372 886.674 0.391202H508.971Z" fill="#EBEBEB"/>
<path d="M310.496 68.2061H121.37V589.871H310.496V68.2061Z" fill="#F5F5F5"/>
<path d="M310.495 589.891H312.412L312.412 68.2254H310.495L310.495 589.891Z" fill="#EBEBEB"/>
<path d="M292.246 88.1172H139.619V569.978H292.246V88.1172Z" fill="white"/>
<path d="M391.572 376.999L837.716 376.999V45.5157L391.572 45.5157L391.572 376.999Z" fill="#E6E6E6"/>
<path d="M384.667 376.999L830.811 376.999V45.5157L384.667 45.5157L384.667 376.999Z" fill="#F5F5F5"/>
<path d="M818.41 363.093V59.4434L397.049 59.4434V363.093H818.41Z" fill="white"/>
<path d="M402.251 363.072V59.4229H397.029V363.072H402.251Z" fill="#E6E6E6"/>
<path d="M389.772 298.212L825.667 298.212V279.513L389.772 279.513V298.212Z" fill="#F5F5F5"/>
<g opacity="0.4">
<path d="M412.931 30.8652H370.818V137.409H412.931V30.8652Z" fill="#E6E6E6"/>
<path d="M412.931 128.842H433.821V30.8658H412.931V128.842Z" fill="#F5F5F5"/>
<path d="M475.934 30.8652H433.821V137.409H475.934V30.8652Z" fill="#E6E6E6"/>
<path d="M475.934 128.842H496.824V30.8658H475.934V128.842Z" fill="#F5F5F5"/>
<path d="M538.937 30.8652H496.824V137.409H538.937V30.8652Z" fill="#E6E6E6"/>
<path d="M538.937 128.842H559.827V30.8658H538.937V128.842Z" fill="#F5F5F5"/>
<path d="M601.94 30.8652H559.827V137.409H601.94V30.8652Z" fill="#E6E6E6"/>
<path d="M601.939 128.842H622.83V30.8658H601.939V128.842Z" fill="#F5F5F5"/>
<path d="M664.942 30.8652H622.83V137.409H664.942V30.8652Z" fill="#E6E6E6"/>
<path d="M664.942 128.842H685.832V30.8658H664.942V128.842Z" fill="#F5F5F5"/>
<path d="M727.945 30.8652H685.832V137.409H727.945V30.8652Z" fill="#E6E6E6"/>
<path d="M727.945 128.842H748.835V30.8658H727.945V128.842Z" fill="#F5F5F5"/>
<path d="M790.948 30.8652H748.835V137.409H790.948V30.8652Z" fill="#E6E6E6"/>
<path d="M790.948 128.842H811.838V30.8658H790.948V128.842Z" fill="#F5F5F5"/>
<path d="M853.95 30.8652H811.838V137.409H853.95V30.8652Z" fill="#E6E6E6"/>
</g>
<path d="M398.457 640.395H450.662V445.968H398.457V640.395Z" fill="#E6E6E6"/>
<path d="M407.161 640.394H398.476V622.888H416.276L407.161 640.394Z" fill="#F0F0F0"/>
<path d="M774.107 640.395H826.312V445.968H774.107V640.395Z" fill="#E6E6E6"/>
<path d="M398.476 633.666H781.676V445.968L398.476 445.968V633.666Z" fill="#F0F0F0"/>
<path d="M405.225 505.763L774.948 505.763V454.281L405.225 454.281V505.763Z" fill="#E6E6E6"/>
<path d="M498.78 470.282H681.451C689.92 470.282 698.038 463.925 703.867 452.678H476.325C482.154 463.925 490.252 470.282 498.78 470.282Z" fill="#F0F0F0"/>
<path d="M772.992 640.394H781.676V622.888H763.877L772.992 640.394Z" fill="#F0F0F0"/>
<path d="M405.225 565.559H774.948V514.077H405.225V565.559Z" fill="#E6E6E6"/>
<path d="M498.78 530.076H681.451C689.92 530.076 698.038 523.738 703.867 512.472H476.325C482.154 523.738 490.252 530.076 498.78 530.076Z" fill="#F0F0F0"/>
<path d="M405.225 625.353H774.948V573.871H405.225V625.353Z" fill="#E6E6E6"/>
<path d="M498.78 589.871H681.451C689.92 589.871 698.038 583.533 703.867 572.267H476.325C482.154 583.533 490.252 589.871 498.78 589.871Z" fill="#F0F0F0"/>
<path d="M489 728.727C698.453 728.727 868.249 718.814 868.249 706.585C868.249 694.357 698.453 684.443 489 684.443C279.547 684.443 109.751 694.357 109.751 706.585C109.751 718.814 279.547 728.727 489 728.727Z" fill="#F5F5F5"/>
<path d="M723.485 695.416H721.392C720.956 695.384 720.546 695.193 720.24 694.88C719.934 694.566 719.752 694.152 719.73 693.715L706.859 604.091H716.639L725.168 693.128C725.215 693.389 725.208 693.658 725.148 693.917C725.088 694.176 724.976 694.42 724.819 694.634C724.661 694.848 724.462 695.028 724.233 695.163C724.003 695.297 723.749 695.383 723.485 695.416Z" fill="#407BFF"/>
<path opacity="0.3" d="M723.485 695.416H721.392C720.956 695.384 720.546 695.193 720.24 694.88C719.934 694.566 719.752 694.152 719.73 693.715L706.859 604.091H716.639L725.168 693.128C725.215 693.389 725.208 693.658 725.148 693.917C725.088 694.176 724.976 694.42 724.819 694.634C724.661 694.848 724.462 695.028 724.233 695.163C724.003 695.297 723.749 695.383 723.485 695.416Z" fill="black"/>
<path d="M750.322 695.416H748.229C747.792 695.384 747.382 695.193 747.076 694.88C746.77 694.566 746.589 694.152 746.566 693.715L733.696 604.091H743.476L752.023 693.128C752.07 693.391 752.063 693.661 752.002 693.921C751.941 694.181 751.827 694.426 751.668 694.64C751.508 694.855 751.306 695.034 751.075 695.168C750.843 695.301 750.587 695.386 750.322 695.416Z" fill="#407BFF"/>
<path opacity="0.3" d="M750.322 695.416H748.229C747.792 695.384 747.382 695.193 747.076 694.88C746.77 694.566 746.589 694.152 746.566 693.715L733.696 604.091H743.476L752.023 693.128C752.07 693.391 752.063 693.661 752.002 693.921C751.941 694.181 751.827 694.426 751.668 694.64C751.508 694.855 751.306 695.034 751.075 695.168C750.843 695.301 750.587 695.386 750.322 695.416Z" fill="black"/>
<path d="M600.805 695.416H602.898C603.335 695.384 603.744 695.193 604.05 694.88C604.356 694.566 604.538 694.152 604.56 693.715L617.431 604.091H607.651L599.123 693.128C599.075 693.389 599.082 693.658 599.142 693.917C599.202 694.176 599.314 694.42 599.472 694.634C599.629 694.848 599.828 695.028 600.058 695.163C600.287 695.297 600.541 695.383 600.805 695.416Z" fill="#407BFF"/>
<path opacity="0.3" d="M600.805 695.416H602.898C603.335 695.384 603.744 695.193 604.05 694.88C604.356 694.566 604.538 694.152 604.56 693.715L617.431 604.091H607.651L599.123 693.128C599.075 693.389 599.082 693.658 599.142 693.917C599.202 694.176 599.314 694.42 599.472 694.634C599.629 694.848 599.828 695.028 600.058 695.163C600.287 695.297 600.541 695.383 600.805 695.416Z" fill="black"/>
<path d="M573.968 695.416H576.061C576.498 695.384 576.908 695.193 577.214 694.88C577.52 694.566 577.701 694.152 577.724 693.715L590.594 604.091H580.814L572.286 693.128C572.239 693.389 572.246 693.658 572.306 693.917C572.366 694.176 572.478 694.42 572.635 694.634C572.793 694.848 572.992 695.028 573.221 695.163C573.45 695.297 573.705 695.383 573.968 695.416Z" fill="#407BFF"/>
<path opacity="0.3" d="M573.968 695.416H576.061C576.498 695.384 576.908 695.193 577.214 694.88C577.52 694.566 577.701 694.152 577.724 693.715L590.594 604.091H580.814L572.286 693.128C572.239 693.389 572.246 693.658 572.306 693.917C572.366 694.176 572.478 694.42 572.635 694.634C572.793 694.848 572.992 695.028 573.221 695.163C573.45 695.297 573.705 695.383 573.968 695.416Z" fill="black"/>
<path d="M539.191 497.822H605.069C616.805 457.235 658.82 425.215 701.891 425.215H723.29C768.278 425.215 797.461 460.286 788.268 503.572C786.549 511.535 783.725 519.219 779.877 526.399L769.49 589.362C768.16 597.499 761.666 604.091 755.016 604.091H556.717C550.066 604.091 543.572 597.499 542.242 589.362L529.567 512.472C528.218 504.413 532.54 497.822 539.191 497.822Z" fill="#407BFF"/>
<path opacity="0.5" d="M539.191 497.822H605.069C616.805 457.235 658.82 425.215 701.891 425.215H723.29C768.278 425.215 797.461 460.286 788.268 503.572C786.549 511.535 783.725 519.219 779.877 526.399L769.49 589.362C768.16 597.499 761.666 604.091 755.016 604.091H556.717C550.066 604.091 543.572 597.499 542.242 589.362L529.567 512.472C528.218 504.413 532.54 497.822 539.191 497.822Z" fill="white"/>
<path d="M522.702 672.238L539.015 679.71C539.293 679.827 539.514 680.048 539.631 680.325C539.748 680.603 539.751 680.916 539.641 681.196L534.497 694.477C534.189 695.156 533.626 695.685 532.929 695.949C532.233 696.213 531.46 696.19 530.78 695.886C525.147 693.187 522.584 691.602 515.406 688.316C507.818 684.566 500.487 680.319 493.46 675.602C488.139 671.69 492.051 666.409 494.692 667.582C506.624 672.844 514.252 673.314 519.787 671.983C520.759 671.73 521.789 671.82 522.702 672.238Z" fill="#263238"/>
<path d="M638.399 472.237C638.399 472.237 534.086 473.528 532.462 514.643C530.154 573.754 521.43 671.886 521.43 671.886L539.034 679.71C539.034 679.71 569.861 581.245 570.956 535.084C600.296 527.807 675.739 535.084 684.6 511.103C688.943 498.63 690.093 485.269 687.945 472.237H638.399Z" fill="#407BFF"/>
<path opacity="0.2" d="M638.399 472.237C638.399 472.237 534.086 473.528 532.462 514.643C530.154 573.754 521.43 671.886 521.43 671.886L539.034 679.71C539.034 679.71 569.861 581.245 570.956 535.084C600.296 527.807 675.739 535.084 684.6 511.103C688.943 498.63 690.093 485.269 687.945 472.237H638.399Z" fill="black"/>
<path d="M660.6 364.051C659.68 367.846 658.761 371.269 657.724 374.829C656.688 378.389 655.612 381.851 654.477 385.332C652.189 392.296 649.666 399.22 646.771 406.066C643.871 413.064 640.506 419.86 636.697 426.408C634.697 429.87 632.49 433.208 630.086 436.404C627.438 439.942 624.385 443.158 620.991 445.988L620.697 446.242L620.071 446.712C618.096 448.001 615.844 448.805 613.499 449.059C612.025 449.239 610.534 449.239 609.059 449.059C607.009 448.807 604.994 448.322 603.054 447.611C600.046 446.527 597.124 445.219 594.311 443.699C589.291 440.908 584.438 437.825 579.778 434.467C575.24 431.201 570.858 427.817 566.594 424.296C562.33 420.775 558.242 417.176 554.193 413.303C553.155 412.295 552.517 410.944 552.398 409.501C552.279 408.058 552.687 406.621 553.546 405.456C554.406 404.291 555.658 403.477 557.072 403.165C558.486 402.853 559.965 403.063 561.235 403.758H561.333C565.949 406.32 570.604 409.039 575.279 411.582C579.954 414.125 584.57 416.687 589.206 419.073C593.841 421.46 598.497 423.729 602.898 425.567C604.917 426.428 607.004 427.122 609.137 427.641C609.771 427.83 610.432 427.916 611.093 427.895C611.23 427.895 611.093 427.895 610.683 427.895C609.686 428.009 608.733 428.365 607.905 428.932L606.966 429.636C608.893 427.761 610.593 425.667 612.032 423.396C613.749 420.818 615.323 418.147 616.746 415.396C619.745 409.492 622.429 403.433 624.785 397.244C627.191 390.946 629.441 384.491 631.533 377.958C633.626 371.425 635.582 364.716 637.401 358.398V358.164C638.232 355.13 640.222 352.546 642.943 350.968C645.664 349.391 648.896 348.947 651.94 349.734C654.985 350.52 657.598 352.473 659.215 355.17C660.832 357.868 661.322 361.093 660.58 364.149L660.6 364.051Z" fill="#263238"/>
<path d="M618.311 680.688H637.871C638.034 680.68 638.198 680.705 638.352 680.761C638.505 680.817 638.646 680.903 638.767 681.014C638.887 681.125 638.984 681.259 639.052 681.408C639.119 681.557 639.157 681.718 639.162 681.881L640.12 697.353C640.121 698.168 639.801 698.95 639.23 699.532C638.66 700.113 637.884 700.448 637.069 700.463C630.262 700.346 626.996 699.935 618.389 699.935C613.108 699.935 602.428 700.483 595.113 700.483C587.797 700.483 588.013 693.265 591.103 692.659C605.01 689.725 610.389 685.676 615.299 681.803C616.155 681.113 617.212 680.722 618.311 680.688Z" fill="#263238"/>
<path d="M666.507 472.237C666.507 472.237 571.895 480.218 574.223 521.313C576.766 566.301 618.311 680.727 618.311 680.727H637.441C637.441 680.727 621.069 575.944 615.299 530.115C641.979 530.115 703.827 535.123 712.708 511.083C717.051 498.611 718.194 485.247 716.033 472.218L666.507 472.237Z" fill="#407BFF"/>
<path d="M562.702 405.675C561.226 403.271 559.437 401.074 557.382 399.142C553.47 402.78 551.338 413.362 551.338 413.362L556.678 413.831C556.678 413.831 562.819 411.836 562.702 405.675Z" fill="#407BFF"/>
<path d="M543.064 396.168L536.981 393.527C536.19 393.186 535.303 393.142 534.483 393.405C533.663 393.667 532.966 394.218 532.521 394.955L529.626 399.728C529.226 400.4 529.058 401.185 529.146 401.962C529.234 402.739 529.575 403.466 530.115 404.031L538.467 412.735L552.394 412.168C553.181 412.141 553.946 411.904 554.61 411.481C555.274 411.058 555.812 410.464 556.169 409.762L557.773 406.613C558.278 405.665 558.416 404.564 558.159 403.521C557.903 402.478 557.271 401.566 556.384 400.96C551.866 397.987 543.064 396.168 543.064 396.168Z" fill="#FFC3BD"/>
<path d="M637.499 360.041C634.722 377.645 631.103 415.65 638.477 472.961L716.033 472.237C715.563 432.51 721.783 395.229 727.867 358.789C728.108 357.358 728.059 355.893 727.724 354.481C727.388 353.07 726.773 351.74 725.914 350.57C725.054 349.401 723.969 348.416 722.722 347.674C721.475 346.932 720.092 346.448 718.654 346.251C696.412 343.649 673.942 343.649 651.7 346.251C648.171 346.733 644.889 348.331 642.334 350.812C639.779 353.294 638.085 356.527 637.499 360.041Z" fill="#263238"/>
<path d="M728.571 353.841C730.859 359.494 732.679 364.912 734.556 370.506C736.434 376.1 738.038 381.714 739.583 387.406C741.128 393.098 742.478 398.907 743.495 404.834C744.679 410.886 745.469 417.008 745.862 423.161C745.979 424.746 745.999 426.389 746.018 428.032V430.536C745.991 433.106 745.318 435.628 744.062 437.871C743.227 439.327 742.125 440.614 740.815 441.665C740.204 442.154 739.55 442.587 738.859 442.956C738.235 443.301 737.58 443.589 736.903 443.817C735.064 444.501 733.115 444.845 731.153 444.834C728.833 444.781 726.531 444.419 724.307 443.758C721.052 442.779 717.886 441.53 714.84 440.022C712.004 438.614 709.343 437.147 706.742 435.621C696.629 429.582 687.032 422.72 678.047 415.103C676.918 414.176 676.167 412.866 675.939 411.422C675.711 409.978 676.021 408.501 676.81 407.271C677.599 406.04 678.812 405.142 680.219 404.747C681.626 404.352 683.129 404.487 684.444 405.127H684.58C694.693 409.939 704.982 414.907 714.996 419.034C717.5 420.051 719.984 420.99 722.429 421.831C724.596 422.628 726.828 423.236 729.099 423.65C729.999 423.807 730.801 423.787 730.703 423.65C730.173 423.601 729.639 423.695 729.158 423.924C728.85 424.043 728.549 424.18 728.258 424.335C727.884 424.535 727.53 424.771 727.202 425.039C726.428 425.643 725.766 426.378 725.246 427.21C724.659 428.185 724.31 429.284 724.229 430.418L724.131 428.638C724.013 427.426 723.916 426.232 723.74 424.981C722.11 414.376 719.664 403.913 716.424 393.685C713.295 383.181 709.696 372.462 706.038 362.271V362.173C705.027 359.236 705.198 356.021 706.514 353.207C707.83 350.393 710.188 348.201 713.091 347.094C715.993 345.987 719.212 346.051 722.068 347.274C724.924 348.496 727.193 350.781 728.395 353.645L728.571 353.841Z" fill="#263238"/>
<path d="M697.568 306.916L688.199 314.74L675.407 325.361C675.801 327.054 676.076 328.773 676.228 330.505C676.835 336.686 675.485 342.359 667.994 345.234C666.569 345.7 665.271 346.488 664.199 347.536C663.127 348.584 662.311 349.864 661.813 351.278C660.795 354.545 661.989 358.202 672.277 358.202C687.397 358.202 695.28 351.474 698.253 348.168C698.652 347.709 698.883 347.128 698.908 346.52C698.933 345.912 698.75 345.314 698.39 344.823C692.424 336.295 695.123 317.518 697.568 306.916Z" fill="#FFC3BD"/>
<path d="M671.905 354.838C672.563 355.598 673.014 356.514 673.216 357.498C673.991 356.446 674.953 355.545 676.052 354.838C677.353 355.449 678.509 356.331 679.443 357.423C680.377 358.516 681.068 359.795 681.47 361.175C678.62 360.591 675.876 359.575 673.333 358.163C671.656 359.093 669.805 359.665 667.896 359.845C668.013 356.461 671.905 354.838 671.905 354.838Z" fill="#407BFF"/>
<path d="M676.052 354.838C678.768 358.108 680.558 362.045 681.236 366.241C681.236 366.241 706.272 359.982 705.099 343.65C702.898 342.61 700.56 341.892 698.155 341.518C698.155 341.518 692.776 351.298 676.052 354.838Z" fill="#407BFF"/>
<path d="M671.906 354.838C669.166 358.133 667.273 362.048 666.39 366.241C666.39 366.241 653.558 354.505 666.057 343.786C668.215 343.1 670.436 342.635 672.688 342.397C672.688 342.397 664.375 349.146 671.906 354.838Z" fill="#407BFF"/>
<path opacity="0.2" d="M675.407 325.303C675.8 327.003 676.074 328.728 676.228 330.467C681.001 329.508 687.358 324.442 687.964 319.572C688.199 317.959 688.259 316.326 688.14 314.701L675.407 325.303Z" fill="black"/>
<path d="M661.715 273.234C649.979 281.586 656.512 301.166 666.566 293.674C676.62 286.183 671.299 266.427 661.715 273.234Z" fill="#263238"/>
<path d="M701.441 290.681C698.175 305.664 697.04 314.584 688.179 321.43C685.325 323.684 681.909 325.115 678.301 325.568C674.692 326.021 671.028 325.479 667.705 324.001C664.382 322.523 661.526 320.164 659.447 317.181C657.367 314.197 656.142 310.702 655.905 307.073C654.732 293.107 660.267 270.926 676.033 266.681C679.426 265.669 683.027 265.568 686.472 266.388C689.917 267.208 693.086 268.919 695.66 271.351C698.235 273.783 700.124 276.849 701.139 280.242C702.154 283.635 702.258 287.235 701.441 290.681Z" fill="#FFC3BD"/>
<path d="M694.497 279.552C686.184 277.263 664.747 282.721 657.138 274.603C648.981 265.899 660.874 261.654 664.395 264.686C659.954 259.601 661.597 254.163 667.896 254.652C672.492 255.004 673.94 260.09 673.94 260.09C673.94 260.09 673.177 251.19 681.079 251.816C688.238 252.363 688.258 262.026 688.258 262.026C688.258 262.026 705.353 257.195 711.065 273.508C721.823 273.273 721.588 295.924 699.935 303.982C691.153 299.64 690.742 284.187 694.497 279.552Z" fill="#263238"/>
<path d="M708.756 276.775C708.193 276.809 707.638 276.622 707.21 276.254C706.781 275.886 706.513 275.366 706.462 274.803C706.412 274.241 706.582 273.681 706.937 273.242C707.292 272.803 707.805 272.519 708.365 272.452C708.953 272.08 709.401 271.522 709.637 270.867C709.952 270.241 710.135 269.557 710.176 268.858C710.216 268.158 710.113 267.457 709.871 266.799C709.707 266.537 709.601 266.244 709.559 265.938C709.517 265.632 709.541 265.321 709.63 265.025C709.718 264.729 709.868 264.455 710.07 264.222C710.273 263.989 710.523 263.801 710.803 263.672C711.084 263.543 711.388 263.476 711.697 263.474C712.006 263.472 712.312 263.536 712.594 263.661C712.876 263.787 713.128 263.971 713.333 264.202C713.538 264.433 713.692 264.705 713.783 264.999C714.315 266.309 714.549 267.72 714.468 269.131C714.386 270.541 713.992 271.916 713.314 273.156C712.931 274.033 712.353 274.811 711.624 275.431C710.896 276.051 710.035 276.497 709.109 276.735C708.994 276.765 708.875 276.778 708.756 276.775Z" fill="#263238"/>
<path d="M703.886 304.588C701.852 307.23 698.924 309.038 695.651 309.674C691.407 310.437 690.116 306.525 691.994 302.75C693.676 299.327 697.862 294.828 701.774 295.806C705.686 296.784 706.39 301.224 703.886 304.588Z" fill="#FFC3BD"/>
<path d="M675.759 292.05C675.563 293.282 674.761 294.202 673.959 294.104C673.157 294.006 672.649 292.93 672.825 291.698C673.001 290.466 673.822 289.547 674.644 289.742C675.465 289.938 675.935 290.818 675.759 292.05Z" fill="#263238"/>
<path d="M661.793 290.388C661.597 291.62 660.795 292.539 659.993 292.344C659.191 292.148 658.683 291.17 658.859 289.938C659.035 288.706 659.856 287.786 660.678 287.884C661.499 287.982 661.988 289.156 661.793 290.388Z" fill="#263238"/>
<path d="M666.057 290.877C664.501 294.053 662.527 297.006 660.189 299.659C660.881 300.213 661.687 300.607 662.55 300.813C663.412 301.019 664.309 301.033 665.177 300.853L666.057 290.877Z" fill="#ED847E"/>
<path d="M670.908 307.19C672.361 307.209 673.803 306.935 675.147 306.384C676.491 305.833 677.711 305.016 678.732 303.982C678.78 303.908 678.8 303.819 678.788 303.731C678.776 303.643 678.733 303.563 678.667 303.504C678.601 303.445 678.516 303.411 678.428 303.409C678.339 303.407 678.253 303.437 678.184 303.493C677.068 304.597 675.713 305.43 674.225 305.928C672.736 306.427 671.153 306.577 669.597 306.368C669.503 306.362 669.409 306.39 669.333 306.448C669.257 306.505 669.205 306.588 669.187 306.681C669.181 306.73 669.185 306.78 669.199 306.827C669.213 306.874 669.236 306.918 669.267 306.956C669.298 306.994 669.336 307.026 669.38 307.049C669.423 307.073 669.47 307.087 669.519 307.092C669.98 307.151 670.443 307.184 670.908 307.19Z" fill="#263238"/>
<path d="M681.372 284.95C681.489 284.926 681.596 284.872 681.685 284.793C681.755 284.726 681.81 284.645 681.847 284.556C681.885 284.467 681.904 284.372 681.904 284.275C681.904 284.178 681.885 284.083 681.847 283.994C681.81 283.905 681.755 283.824 681.685 283.757C680.943 282.88 679.996 282.2 678.928 281.777C677.86 281.354 676.704 281.201 675.563 281.331C675.468 281.347 675.377 281.381 675.295 281.431C675.213 281.482 675.142 281.548 675.086 281.626C675.029 281.704 674.989 281.793 674.967 281.887C674.945 281.98 674.941 282.077 674.957 282.172C674.972 282.267 675.006 282.358 675.057 282.44C675.107 282.522 675.174 282.593 675.252 282.65C675.33 282.706 675.418 282.746 675.512 282.769C675.606 282.791 675.703 282.794 675.798 282.779C676.698 282.691 677.606 282.824 678.444 283.164C679.282 283.505 680.025 284.044 680.61 284.735C680.702 284.841 680.823 284.918 680.959 284.956C681.094 284.994 681.238 284.992 681.372 284.95Z" fill="#263238"/>
<path d="M656.805 284.148C656.919 284.179 657.039 284.183 657.154 284.16C657.27 284.136 657.378 284.085 657.47 284.011C658.172 283.386 659.009 282.934 659.915 282.69C660.822 282.445 661.773 282.415 662.693 282.602C662.879 282.651 663.078 282.625 663.246 282.53C663.413 282.435 663.538 282.279 663.593 282.094C663.619 282.001 663.627 281.905 663.616 281.809C663.605 281.713 663.575 281.621 663.527 281.537C663.48 281.453 663.416 281.38 663.34 281.321C663.264 281.262 663.177 281.219 663.084 281.194C661.938 280.947 660.75 280.972 659.615 281.267C658.48 281.563 657.431 282.121 656.551 282.896C656.403 283.018 656.31 283.193 656.292 283.384C656.274 283.575 656.332 283.765 656.453 283.913C656.544 284.025 656.667 284.107 656.805 284.148Z" fill="#263238"/>
<path d="M682.272 394.995L673.705 389.674C673.095 389.293 672.416 389.038 671.706 388.922C670.997 388.806 670.272 388.833 669.573 389.001C668.873 389.168 668.215 389.473 667.635 389.898C667.055 390.322 666.565 390.858 666.194 391.474L665.196 393.156C664.6 394.136 664.332 395.281 664.431 396.424C664.529 397.567 664.989 398.649 665.744 399.513L671.612 406.3C671.612 406.3 676.756 418.29 682.722 415.122L687.26 407.298L682.272 394.995Z" fill="#FFC3BD"/>
<path d="M691.094 410.329C689.921 407.49 688.396 404.809 686.556 402.349C682.253 406.026 678.732 417.762 678.732 417.762L683.994 418.896C685.908 418.359 687.612 417.252 688.881 415.721C690.149 414.19 690.921 412.31 691.094 410.329Z" fill="#407BFF"/>
<path d="M756.64 497.822H655.084C648.434 497.822 644.13 504.414 645.46 512.551L658.135 589.363C659.485 597.5 665.959 604.092 672.629 604.092H744.062L756.64 497.822Z" fill="#407BFF"/>
<path opacity="0.5" d="M756.64 497.822H655.084C648.434 497.822 644.13 504.414 645.46 512.551L658.135 589.363C659.485 597.5 665.959 604.092 672.629 604.092H744.062L756.64 497.822Z" fill="white"/>
<path d="M288.08 702.008H291.014C291.532 702.008 292.03 701.801 292.397 701.435C292.764 701.068 292.97 700.57 292.97 700.052L309.048 457.703H296.94L286.182 699.778C286.144 700.052 286.163 700.331 286.24 700.597C286.318 700.862 286.45 701.109 286.629 701.319C286.809 701.53 287.031 701.701 287.281 701.819C287.531 701.938 287.803 702.002 288.08 702.008Z" fill="#407BFF"/>
<path opacity="0.3" d="M288.08 702.008H291.014C291.532 702.008 292.03 701.801 292.397 701.435C292.764 701.068 292.97 700.57 292.97 700.052L309.048 457.703H296.94L286.182 699.778C286.144 700.052 286.163 700.331 286.24 700.597C286.318 700.862 286.45 701.109 286.629 701.319C286.809 701.53 287.031 701.701 287.281 701.819C287.531 701.938 287.803 702.002 288.08 702.008Z" fill="white"/>
<path d="M254.828 702.008H257.762C258.28 702.008 258.778 701.801 259.145 701.435C259.511 701.068 259.718 700.57 259.718 700.052L275.796 457.703H263.669L252.93 699.778C252.891 700.052 252.911 700.331 252.988 700.597C253.065 700.862 253.198 701.109 253.377 701.319C253.557 701.53 253.779 701.701 254.029 701.819C254.279 701.938 254.551 702.002 254.828 702.008Z" fill="#407BFF"/>
<path opacity="0.3" d="M254.828 702.008H257.762C258.28 702.008 258.778 701.801 259.145 701.435C259.511 701.068 259.718 700.57 259.718 700.052L275.796 457.703H263.669L252.93 699.778C252.891 700.052 252.911 700.331 252.988 700.597C253.065 700.862 253.198 701.109 253.377 701.319C253.557 701.53 253.779 701.701 254.029 701.819C254.279 701.938 254.551 702.002 254.828 702.008Z" fill="white"/>
<path d="M664.903 702.008H661.969C661.45 702.008 660.953 701.801 660.586 701.435C660.219 701.068 660.013 700.57 660.013 700.052L643.935 457.703H656.042L666.8 699.778C666.839 700.052 666.819 700.331 666.742 700.597C666.665 700.862 666.533 701.109 666.353 701.319C666.174 701.53 665.952 701.701 665.702 701.819C665.452 701.938 665.18 702.002 664.903 702.008Z" fill="#407BFF"/>
<path opacity="0.3" d="M664.903 702.008H661.969C661.45 702.008 660.953 701.801 660.586 701.435C660.219 701.068 660.013 700.57 660.013 700.052L643.935 457.703H656.042L666.8 699.778C666.839 700.052 666.819 700.331 666.742 700.597C666.665 700.862 666.533 701.109 666.353 701.319C666.174 701.53 665.952 701.701 665.702 701.819C665.452 701.938 665.18 702.002 664.903 702.008Z" fill="white"/>
<path d="M698.155 702.008H695.221C694.702 702.008 694.205 701.801 693.838 701.435C693.471 701.068 693.265 700.57 693.265 700.052L677.187 457.703H689.314L700.052 699.778C700.091 700.052 700.071 700.331 699.994 700.597C699.917 700.862 699.785 701.109 699.605 701.319C699.426 701.53 699.204 701.701 698.954 701.819C698.704 701.938 698.432 702.002 698.155 702.008Z" fill="#407BFF"/>
<path opacity="0.3" d="M698.155 702.008H695.221C694.702 702.008 694.205 701.801 693.838 701.435C693.471 701.068 693.265 700.57 693.265 700.052L677.187 457.703H689.314L700.052 699.778C700.091 700.052 700.071 700.331 699.994 700.597C699.917 700.862 699.785 701.109 699.605 701.319C699.426 701.53 699.204 701.701 698.954 701.819C698.704 701.938 698.432 702.002 698.155 702.008Z" fill="white"/>
<path d="M712.141 452.774H240.158V457.762H712.141V452.774Z" fill="#407BFF"/>
<path d="M232.295 375.553L227.835 408.355C226.427 419.269 224.96 430.223 223.923 440.981C223.786 442.331 223.688 443.641 223.571 444.893L223.414 446.849C223.447 446.524 223.447 446.196 223.414 445.871C223.377 445.558 223.305 445.249 223.199 444.952C223.119 444.716 223.021 444.487 222.906 444.267C222.828 444.11 222.736 443.959 222.632 443.817C222.28 443.367 222.241 443.426 222.338 443.524C222.538 443.737 222.761 443.928 223.004 444.091C223.827 444.655 224.69 445.158 225.585 445.597C230.241 447.726 235.046 449.511 239.962 450.937C250.211 454.047 260.989 456.805 271.63 459.368L270.417 468.698C259.041 468.356 247.706 467.185 236.5 465.196C230.563 464.198 224.729 462.66 219.072 460.6C217.41 459.959 215.795 459.201 214.241 458.331C213.281 457.784 212.365 457.162 211.502 456.473C210.306 455.525 209.257 454.405 208.392 453.147C207.769 452.218 207.27 451.212 206.906 450.155C206.706 449.514 206.549 448.861 206.436 448.199C206.364 447.549 206.325 446.896 206.319 446.243V444.072C206.319 442.624 206.319 441.177 206.436 439.749C206.906 428.326 207.942 417.177 209.155 406.027C210.368 394.878 211.776 383.827 213.517 372.775L232.295 375.553Z" fill="#7F3E3B"/>
<path d="M296.158 469.44L288.979 475.993C288.158 476.739 287.134 477.223 286.036 477.383C284.938 477.543 283.818 477.373 282.818 476.893L274.896 473.078C274.896 473.078 263.16 472.589 261.458 465.411L264.51 459.836L282.72 457.88C284.589 457.679 286.472 458.098 288.08 459.073L295.591 463.67C296.063 463.969 296.461 464.372 296.754 464.848C297.047 465.324 297.228 465.86 297.282 466.417C297.337 466.973 297.264 467.534 297.069 468.058C296.875 468.582 296.563 469.055 296.158 469.44Z" fill="#7F3E3B"/>
<path d="M253.204 308.188C255.16 319.454 256.647 340.012 248.588 347.307C248.588 347.307 268.148 357.596 281.116 375.552C294.808 364.638 283.366 348.344 283.366 348.344C270.965 344.999 271.63 335.748 273.996 327.122L253.204 308.188Z" fill="#7F3E3B"/>
<path d="M289.957 355.19C289.957 355.19 288.921 345.645 283.718 340.931C279.356 337.019 256.334 339.17 249.155 339.972C248.488 340.052 247.853 340.298 247.306 340.688C246.759 341.078 246.319 341.598 246.026 342.202L240.783 353.156L289.957 355.19Z" fill="#407BFF"/>
<path opacity="0.8" d="M289.957 355.19C289.957 355.19 288.921 345.645 283.718 340.931C279.356 337.019 256.334 339.17 249.155 339.972C248.488 340.052 247.853 340.298 247.306 340.688C246.759 341.078 246.319 341.598 246.026 342.202L240.783 353.156L289.957 355.19Z" fill="white"/>
<path d="M226.368 350.125C212.206 354.741 209.155 373.734 210.446 388.502L239.023 406.106C239.023 406.106 245.967 384.59 245.908 373.01C245.85 360.765 235.991 347.034 226.368 350.125Z" fill="#407BFF"/>
<path d="M231.903 401.821C231.543 401.829 231.185 401.766 230.849 401.635C230.513 401.504 230.207 401.308 229.947 401.058C229.831 400.931 229.726 400.794 229.634 400.648C229.527 400.505 229.441 400.347 229.38 400.178C229.316 400.019 229.264 399.856 229.223 399.689C229.204 399.52 229.204 399.35 229.223 399.181C229.215 398.819 229.28 398.459 229.414 398.123C229.549 397.786 229.75 397.481 230.006 397.225C230.514 396.746 231.186 396.479 231.884 396.479C232.582 396.479 233.253 396.746 233.761 397.225C234.017 397.481 234.218 397.786 234.353 398.123C234.487 398.459 234.552 398.819 234.544 399.181C234.563 399.35 234.563 399.52 234.544 399.689C234.513 399.858 234.461 400.023 234.387 400.178C234.333 400.346 234.254 400.504 234.153 400.648L233.82 401.058C233.567 401.307 233.268 401.502 232.939 401.633C232.609 401.764 232.257 401.828 231.903 401.821Z" fill="white"/>
<path d="M226.407 400.022C225.921 399.835 225.5 399.509 225.198 399.084C224.895 398.66 224.724 398.157 224.705 397.636C224.322 397.983 223.844 398.21 223.333 398.286C222.821 398.363 222.298 398.286 221.83 398.066C221.362 397.848 220.968 397.499 220.694 397.062C220.42 396.625 220.277 396.118 220.285 395.602C219.882 395.927 219.392 396.125 218.876 396.171C218.36 396.216 217.843 396.106 217.39 395.856C216.936 395.614 216.562 395.244 216.315 394.792C216.069 394.34 215.959 393.826 216.001 393.313C215.577 393.611 215.076 393.78 214.558 393.797C214.041 393.814 213.529 393.68 213.086 393.411C212.487 393.046 212.056 392.459 211.887 391.777C211.719 391.096 211.826 390.375 212.187 389.773C212.555 389.172 213.146 388.74 213.831 388.572C214.516 388.403 215.239 388.512 215.844 388.873C216.26 389.135 216.597 389.504 216.82 389.941C217.044 390.378 217.146 390.867 217.116 391.357C217.516 391.07 217.988 390.901 218.479 390.87C218.971 390.839 219.461 390.947 219.893 391.181C220.326 391.414 220.687 391.762 220.935 392.186C221.183 392.611 221.31 393.095 221.302 393.587C221.685 393.281 222.146 393.087 222.633 393.029C223.121 392.97 223.614 393.048 224.06 393.254C224.505 393.459 224.885 393.783 225.157 394.191C225.43 394.598 225.585 395.073 225.605 395.562C225.974 395.24 226.424 395.024 226.906 394.938C227.389 394.852 227.885 394.899 228.343 395.073C228.995 395.335 229.518 395.843 229.796 396.488C230.075 397.133 230.087 397.862 229.83 398.516C229.637 399.012 229.298 399.438 228.858 399.739C228.418 400.039 227.898 400.199 227.365 400.198C227.038 400.194 226.714 400.135 226.407 400.022Z" fill="white"/>
<path d="M210.446 391.2C210.27 391.22 210.093 391.22 209.918 391.2C209.749 391.17 209.584 391.117 209.429 391.044C209.262 390.99 209.103 390.911 208.959 390.809L208.568 390.477C208.442 390.361 208.33 390.229 208.236 390.086C208.236 389.929 208.06 389.773 207.981 389.616C207.92 389.456 207.868 389.293 207.825 389.127C207.815 388.951 207.815 388.775 207.825 388.599C207.815 388.43 207.815 388.26 207.825 388.09C207.868 387.918 207.92 387.749 207.981 387.582C208.046 387.421 208.131 387.27 208.236 387.132C208.335 386.986 208.446 386.848 208.568 386.721L208.959 386.389C209.108 386.295 209.265 386.216 209.429 386.154L209.918 385.997C210.345 385.921 210.783 385.946 211.198 386.072C211.613 386.198 211.992 386.42 212.304 386.721C212.427 386.848 212.538 386.986 212.637 387.132C212.733 387.275 212.818 387.426 212.891 387.582C212.955 387.746 213.001 387.916 213.028 388.09C213.048 388.259 213.048 388.43 213.028 388.599C213.047 388.774 213.047 388.952 213.028 389.127C213.001 389.295 212.955 389.459 212.891 389.616C212.891 389.773 212.735 389.929 212.637 390.086C212.543 390.229 212.431 390.361 212.304 390.477C211.801 390.948 211.135 391.207 210.446 391.2Z" fill="white"/>
<path d="M316.422 377.763C315.229 394.037 311.61 421.421 302.73 467.544L226.172 465.275C228.128 437.011 225.135 415.944 218.211 366.477C217.916 364.337 218.055 362.159 218.62 360.074C219.184 357.988 220.163 356.038 221.497 354.339C222.831 352.639 224.494 351.226 226.386 350.183C228.278 349.14 230.36 348.488 232.51 348.267C237.419 347.758 243.013 347.347 248.627 347.23C260.229 346.749 271.851 347.096 283.405 348.267C287.121 348.717 290.974 349.323 294.652 349.949C301.09 351.046 306.889 354.503 310.915 359.647C314.94 364.79 316.904 371.25 316.422 377.763Z" fill="#407BFF"/>
<path d="M292.813 287.532C292.989 289.038 293.948 290.173 294.926 290.036C295.904 289.899 296.569 288.608 296.393 287.102C296.217 285.596 295.258 284.461 294.28 284.579C293.302 284.696 292.637 285.967 292.813 287.532Z" fill="#263238"/>
<path d="M293.85 284.676L297.351 283.189C297.351 283.189 295.825 286.241 293.85 284.676Z" fill="#263238"/>
<path d="M293.4 289.821C295.157 293.105 297.355 296.132 299.933 298.819C299.231 299.464 298.396 299.948 297.487 300.235C296.578 300.522 295.617 300.606 294.671 300.481L293.4 289.821Z" fill="#630F0F"/>
<path d="M292.989 274.252C293.066 274.114 293.107 273.96 293.107 273.802C293.107 273.644 293.066 273.49 292.989 273.352C292.884 273.141 292.7 272.979 292.477 272.903C292.254 272.826 292.009 272.84 291.796 272.941C290.499 273.518 289.359 274.398 288.474 275.508C287.589 276.618 286.984 277.925 286.71 279.318C286.694 279.434 286.701 279.552 286.73 279.665C286.76 279.778 286.812 279.884 286.883 279.977C286.954 280.07 287.042 280.147 287.144 280.206C287.245 280.264 287.357 280.301 287.473 280.315C287.589 280.332 287.707 280.325 287.82 280.296C287.933 280.266 288.039 280.214 288.132 280.143C288.225 280.072 288.303 279.983 288.361 279.882C288.419 279.781 288.456 279.669 288.471 279.553C288.709 278.455 289.203 277.429 289.914 276.558C290.624 275.688 291.531 274.998 292.559 274.545C292.733 274.503 292.886 274.398 292.989 274.252Z" fill="#263238"/>
<path d="M240.705 287.141C244.07 305.547 245.106 313.41 255.61 321.821C271.414 334.457 293.302 326.3 295.512 307.249C297.468 290.095 291.6 262.867 272.627 257.664C268.434 256.498 264.012 256.423 259.781 257.446C255.55 258.468 251.651 260.555 248.453 263.508C245.255 266.461 242.865 270.182 241.509 274.318C240.153 278.454 239.876 282.868 240.705 287.141Z" fill="#7F3E3B"/>
<path d="M281.273 292.305C284.363 302.418 291.757 326.868 275.405 332.325C262.632 336.589 222.593 339.992 217.996 316.54C213.243 292.305 234.857 275.034 234.857 275.034C234.857 275.034 217.722 260.99 228.696 245.694C242.837 225.977 276.715 237.126 286.75 251.053C296.549 264.608 281.273 292.305 281.273 292.305Z" fill="#263238"/>
<path d="M250.368 335.689C242.991 335.681 235.685 334.246 228.852 331.464C219.776 327.552 214.475 321.508 213.517 313.977C210.309 288.412 234.094 274.368 234.348 274.231L235.287 275.855C235.053 275.992 212.343 289.43 215.395 313.743C216.49 322.369 223.727 327.2 229.615 329.723C241.234 334.731 256.236 334.691 259.874 332.031L260.989 333.557C259.15 334.946 255.16 335.689 250.368 335.689Z" fill="#263238"/>
<path d="M227.502 271.375C227.287 274.642 224.588 279.2 235.913 280.823C247.238 282.446 263.004 282.349 266.251 279.63C269.497 276.911 272.666 270.378 265.898 270.965C259.131 271.552 227.874 265.781 227.502 271.375Z" fill="#407BFF"/>
<path d="M275.072 295.18C276.921 298.597 280.041 301.148 283.757 302.281C288.686 303.728 291.229 299.327 289.918 294.633C288.725 290.408 284.715 284.559 279.747 285.166C274.779 285.772 272.862 290.975 275.072 295.18Z" fill="#7F3E3B"/>
<path d="M394.408 681.784L412.559 681.432L403.777 636.131L385.625 636.463L394.408 681.784Z" fill="#7F3E3B"/>
<path d="M408.021 662.048C412.814 680.141 430.476 699.212 430.476 699.212L405.283 692.796L394.271 677.148L396.227 673.001L408.021 662.048Z" fill="#7F3E3B"/>
<path d="M390.124 670.458C390.073 672.578 390.197 674.697 390.496 676.796C391.572 684.268 394.858 704.18 394.858 704.18H396.579C395.801 698.118 395.337 692.02 395.19 685.911C395.425 681.001 398.594 689.686 402.427 694.615C406.261 699.544 413.166 704.023 424.335 704.395C437.401 704.806 442.623 704.258 438.437 700.992C434.252 697.725 425.332 695.613 425.332 695.613C418.138 692.532 412.013 687.394 407.728 680.845C403.501 674.96 397.945 670.155 391.513 666.82C390.418 666.879 390.202 668.952 390.124 670.458Z" fill="#263238"/>
<path d="M458.701 620.229L481.861 620.953L455.944 582.42L439.904 596.131L458.701 620.229Z" fill="#7F3E3B"/>
<path d="M464.198 603.876C481.039 611.7 507.993 610.174 507.993 610.174L486.085 627.778L467.288 626.37L465.332 622.204L464.198 603.876Z" fill="#7F3E3B"/>
<path d="M460.638 623.847C462.155 625.322 463.791 626.669 465.528 627.877C471.67 632.16 488.276 643.133 488.276 643.133L489.332 641.784C484.386 638.231 479.627 634.424 475.073 630.38C471.591 626.82 479.943 630.283 485.929 630.635C491.914 630.987 499.464 628.679 506.604 620.072C514.995 610.077 517.792 605.598 512.824 606.654C507.856 607.71 500.775 613.265 500.775 613.265C494.125 616.826 486.507 618.156 479.044 617.06C472.112 616.355 465.114 617.439 458.721 620.209C458.193 621.187 459.503 622.713 460.638 623.847Z" fill="#263238"/>
<path d="M275.991 466.213C275.991 466.213 399.924 447.925 412.716 479.651C435.053 534.928 466.565 598.263 466.565 598.263L451.347 610.86C451.347 610.86 397.303 560.825 378.095 505.236C355.131 512.668 282.075 536.532 255.317 536.532C226.739 536.532 215.062 512.179 225.39 471.71C225.842 469.976 226.854 468.44 228.269 467.34C229.683 466.24 231.422 465.637 233.214 465.627C251.346 465.803 275.991 466.213 275.991 466.213Z" fill="#263238"/>
<path d="M287.865 482.35C287.865 482.35 389.576 479.299 390.457 515.328C391.865 574.928 408.667 660.327 408.667 660.327L390.105 662.048C390.105 662.048 359.767 594.116 351.747 535.945C315.522 538.292 282.114 536.668 255.356 536.668C225.37 536.668 222.886 503.749 252.07 465.314C269.928 465.274 287.865 482.35 287.865 482.35Z" fill="#263238"/>
<path d="M225.116 460.736L222.984 467.484C222.691 468.012 223.297 468.56 224.197 468.599L302.984 470.926C303.669 470.926 304.256 470.633 304.315 470.203L305.214 463.376C305.214 462.887 304.686 462.477 303.923 462.457L226.407 460.149C226.159 460.122 225.908 460.162 225.681 460.265C225.454 460.368 225.259 460.531 225.116 460.736Z" fill="white"/>
<path d="M235.268 469.715H233.194C232.783 469.715 232.471 469.48 232.51 469.226L233.742 460.345C233.742 460.091 234.153 459.896 234.563 459.896H236.637C237.048 459.896 237.361 460.13 237.321 460.385L236.089 469.245C236.05 469.539 235.678 469.734 235.268 469.715Z" fill="#263238"/>
<path d="M297.097 471.573H295.023C294.613 471.573 294.3 471.338 294.339 471.084L295.591 462.204C295.591 461.949 295.982 461.754 296.393 461.754H298.466C298.896 461.754 299.19 461.989 299.17 462.243L297.918 471.123C297.879 471.397 297.527 471.573 297.097 471.573Z" fill="#263238"/>
<path d="M266.192 470.634H264.119C263.688 470.634 263.395 470.399 263.434 470.145L264.666 461.264C264.666 461.01 265.077 460.814 265.488 460.814H267.561C267.972 460.814 268.285 461.049 268.246 461.303L267.013 470.184C266.974 470.458 266.603 470.653 266.192 470.634Z" fill="#263238"/>
<path d="M360.549 384.569H410.017C410.384 384.571 410.747 384.657 411.076 384.822C411.404 384.986 411.691 385.225 411.912 385.518C412.134 385.812 412.285 386.152 412.353 386.514C412.421 386.875 412.405 387.247 412.305 387.601L393.801 451.073C393.661 451.566 393.363 451.998 392.953 452.306C392.543 452.613 392.044 452.778 391.532 452.775H342.046C341.677 452.779 341.312 452.696 340.982 452.532C340.651 452.369 340.364 452.13 340.143 451.834C339.922 451.539 339.773 451.196 339.71 450.833C339.646 450.469 339.669 450.096 339.777 449.743L358.261 386.271C358.405 385.777 358.707 385.344 359.12 385.037C359.533 384.73 360.035 384.566 360.549 384.569Z" fill="#407BFF"/>
<path d="M361.449 386.897L409.547 388.032L390.555 447.905L342.457 446.751L361.449 386.897Z" fill="#E0E0E0"/>
<path d="M359.943 386.311L408.041 386.506L390.222 446.731L342.124 446.536L359.943 386.311Z" fill="white"/>
<path d="M316.559 387.562C316.559 389.518 316.852 391.827 317.009 393.998C317.165 396.169 317.459 398.438 317.752 400.648C318.3 405.069 319.03 409.424 319.943 413.714C320.821 417.897 321.984 422.014 323.425 426.037C324.148 427.993 324.95 429.949 325.811 431.67C326.241 432.57 326.711 433.411 327.18 434.272L327.904 435.465C328.802 436.282 329.861 436.902 331.014 437.284C332.845 437.994 334.729 438.563 336.647 438.986C340.966 439.897 345.336 440.55 349.733 440.942C358.77 441.822 368.217 442.252 377.449 442.448L378.388 451.817C368.775 453.724 359.02 454.83 349.224 455.123C344.137 455.28 339.045 455.071 333.987 454.497C331.216 454.157 328.476 453.602 325.791 452.834C322.359 451.926 319.168 450.277 316.442 448.003C315.529 447.213 314.702 446.328 313.977 445.362L312.725 443.602C311.923 442.428 311.141 441.255 310.476 440.062C309.082 437.735 307.847 435.317 306.779 432.824C304.691 428.043 303.003 423.097 301.733 418.037C300.466 413.118 299.493 408.128 298.818 403.093C298.486 400.609 298.231 398.105 298.016 395.582C297.801 393.059 297.664 390.653 297.625 387.758L316.559 387.562Z" fill="#7F3E3B"/>
<path d="M310.124 358.711C322.447 370.31 319.474 400.53 319.474 400.53L295.884 404.658C295.884 404.658 281.312 382.985 286.437 373.909C291.757 364.442 303.473 352.432 310.124 358.711Z" fill="#407BFF"/>
<path d="M319.473 403.191C319.112 403.197 318.752 403.131 318.416 402.997C318.081 402.862 317.775 402.662 317.517 402.408C317.391 402.284 317.28 402.147 317.185 401.998C317.095 401.854 317.017 401.704 316.95 401.548C316.91 401.361 316.884 401.171 316.872 400.981C316.861 400.811 316.861 400.641 316.872 400.472C316.86 400.111 316.921 399.752 317.052 399.416C317.183 399.079 317.381 398.773 317.635 398.516C317.763 398.395 317.9 398.283 318.045 398.183C318.185 398.086 318.336 398.007 318.495 397.949C318.659 397.879 318.829 397.826 319.004 397.792C319.388 397.717 319.785 397.728 320.164 397.824C320.544 397.92 320.898 398.099 321.2 398.347C321.503 398.596 321.747 398.908 321.915 399.262C322.083 399.616 322.171 400.002 322.173 400.394C322.193 400.563 322.193 400.733 322.173 400.902C322.141 401.078 322.089 401.248 322.016 401.411C321.958 401.57 321.879 401.722 321.781 401.861C321.686 402.01 321.575 402.148 321.449 402.271C321.202 402.555 320.899 402.783 320.559 402.941C320.218 403.099 319.849 403.184 319.473 403.191Z" fill="white"/>
<path d="M298.036 404.599C297.976 403.896 298.198 403.199 298.653 402.659C299.108 402.12 299.758 401.784 300.461 401.724C300.951 401.679 301.444 401.772 301.883 401.993C302.322 402.215 302.69 402.555 302.945 402.976C303.103 402.51 303.385 402.096 303.761 401.779C304.136 401.462 304.592 401.254 305.077 401.176C305.565 401.111 306.062 401.18 306.514 401.376C306.966 401.573 307.355 401.889 307.64 402.291C307.751 401.815 307.993 401.38 308.339 401.034C308.684 400.689 309.12 400.446 309.596 400.335C310.078 400.234 310.58 400.27 311.043 400.44C311.506 400.609 311.913 400.905 312.217 401.294C312.332 400.82 312.575 400.386 312.92 400.041C313.265 399.696 313.699 399.453 314.173 399.338C314.514 399.247 314.871 399.227 315.221 399.277C315.571 399.327 315.907 399.446 316.21 399.629C316.513 399.811 316.776 400.052 316.984 400.338C317.191 400.624 317.34 400.949 317.42 401.294C317.507 401.635 317.526 401.991 317.475 402.34C317.423 402.689 317.303 403.024 317.121 403.327C316.939 403.629 316.699 403.892 316.414 404.1C316.13 404.309 315.807 404.458 315.464 404.541C314.964 404.669 314.438 404.651 313.949 404.487C313.46 404.324 313.028 404.024 312.706 403.621C312.595 404.127 312.341 404.591 311.973 404.955C311.605 405.32 311.139 405.57 310.632 405.675C310.125 405.77 309.601 405.717 309.122 405.523C308.644 405.329 308.231 405.001 307.933 404.58C307.804 405.083 307.529 405.537 307.143 405.885C306.756 406.233 306.276 406.46 305.762 406.536C305.25 406.609 304.727 406.532 304.258 406.313C303.789 406.094 303.394 405.743 303.121 405.303C302.954 405.792 302.649 406.222 302.243 406.541C301.837 406.86 301.347 407.055 300.833 407.103H300.618C299.953 407.08 299.321 406.811 298.844 406.349C298.367 405.886 298.079 405.263 298.036 404.599Z" fill="white"/>
<path d="M295.884 407.318C295.709 407.338 295.531 407.338 295.356 407.318L294.867 407.162C294.705 407.096 294.548 407.017 294.397 406.927L294.006 406.595C293.875 406.476 293.763 406.337 293.674 406.184C293.578 406.041 293.492 405.89 293.419 405.734C293.356 405.57 293.31 405.399 293.283 405.226C293.262 405.057 293.262 404.886 293.283 404.717C293.263 404.541 293.263 404.364 293.283 404.189C293.31 404.021 293.356 403.857 293.419 403.7C293.419 403.543 293.576 403.387 293.674 403.23C293.768 403.087 293.88 402.955 294.006 402.839L294.397 402.507C294.544 402.409 294.701 402.33 294.867 402.272C295.022 402.199 295.187 402.146 295.356 402.115C295.782 402.028 296.224 402.049 296.641 402.175C297.057 402.302 297.436 402.53 297.742 402.839C297.869 402.955 297.981 403.087 298.075 403.23C298.173 403.387 298.251 403.543 298.329 403.7C298.39 403.86 298.442 404.023 298.486 404.189C298.495 404.365 298.495 404.541 298.486 404.717C298.496 404.886 298.496 405.056 298.486 405.226C298.442 405.398 298.39 405.567 298.329 405.734C298.256 405.89 298.171 406.041 298.075 406.184C297.981 406.334 297.869 406.472 297.742 406.595C297.239 407.066 296.573 407.325 295.884 407.318Z" fill="white"/>
<path d="M399.415 432.707L391.239 432.159C389.203 432.016 387.178 432.56 385.488 433.704L370.486 443.778L370.368 450.135C375.18 455.729 385.821 450.722 385.821 450.722L395.699 450.389C396.486 450.369 397.249 450.112 397.887 449.651C398.526 449.191 399.011 448.548 399.278 447.807L402.858 438.027C403.081 437.451 403.165 436.829 403.101 436.214C403.038 435.599 402.83 435.007 402.494 434.488C402.158 433.969 401.704 433.537 401.169 433.227C400.634 432.918 400.033 432.739 399.415 432.707Z" fill="#7F3E3B"/>
<path d="M230.006 710.83H232.216C232.675 710.786 233.102 710.581 233.425 710.251C233.747 709.922 233.942 709.49 233.977 709.031L247.669 614.282H237.322L228.304 708.405C228.251 708.677 228.253 708.956 228.311 709.227C228.368 709.497 228.479 709.754 228.638 709.98C228.797 710.207 229 710.399 229.235 710.545C229.47 710.691 229.733 710.788 230.006 710.83Z" fill="#407BFF"/>
<path opacity="0.3" d="M230.006 710.83H232.216C232.675 710.786 233.102 710.581 233.425 710.251C233.747 709.922 233.942 709.49 233.977 709.031L247.669 614.282H237.322L228.304 708.405C228.251 708.677 228.253 708.956 228.311 709.227C228.368 709.497 228.479 709.754 228.638 709.98C228.797 710.207 229 710.399 229.235 710.545C229.47 710.691 229.733 710.788 230.006 710.83Z" fill="black"/>
<path d="M201.644 710.83H203.854C204.313 710.786 204.74 710.581 205.062 710.251C205.384 709.922 205.58 709.49 205.615 709.031L219.307 614.282H208.959L199.942 708.405C199.889 708.677 199.891 708.956 199.948 709.227C200.006 709.497 200.117 709.754 200.276 709.98C200.435 710.207 200.638 710.399 200.873 710.545C201.108 710.691 201.371 710.788 201.644 710.83Z" fill="#407BFF"/>
<path opacity="0.3" d="M201.644 710.83H203.854C204.313 710.786 204.74 710.581 205.062 710.251C205.384 709.922 205.58 709.49 205.615 709.031L219.307 614.282H208.959L199.942 708.405C199.889 708.677 199.891 708.956 199.948 709.227C200.006 709.497 200.117 709.754 200.276 709.98C200.435 710.207 200.638 710.399 200.873 710.545C201.108 710.691 201.371 710.788 201.644 710.83Z" fill="black"/>
<path d="M359.689 710.83H357.459C357.004 710.781 356.581 710.574 356.263 710.246C355.945 709.917 355.752 709.487 355.718 709.031L342.026 614.282H352.354L361.371 708.405C361.424 708.675 361.423 708.953 361.367 709.223C361.31 709.492 361.201 709.748 361.044 709.974C360.887 710.2 360.686 710.393 360.453 710.54C360.22 710.687 359.96 710.786 359.689 710.83Z" fill="#407BFF"/>
<path opacity="0.3" d="M359.689 710.83H357.459C357.004 710.781 356.581 710.574 356.263 710.246C355.945 709.917 355.752 709.487 355.718 709.031L342.026 614.282H352.354L361.371 708.405C361.424 708.675 361.423 708.953 361.367 709.223C361.31 709.492 361.201 709.748 361.044 709.974C360.887 710.2 360.686 710.393 360.453 710.54C360.22 710.687 359.96 710.786 359.689 710.83Z" fill="black"/>
<path d="M388.051 710.83H385.821C385.366 710.781 384.943 710.574 384.625 710.246C384.307 709.917 384.114 709.487 384.08 709.031L370.388 614.282H380.716L389.733 708.405C389.786 708.675 389.785 708.953 389.729 709.223C389.672 709.492 389.563 709.748 389.406 709.974C389.249 710.2 389.048 710.393 388.815 710.54C388.582 710.687 388.322 710.786 388.051 710.83Z" fill="#407BFF"/>
<path opacity="0.3" d="M388.051 710.83H385.821C385.366 710.781 384.943 710.574 384.625 710.246C384.307 709.917 384.114 709.487 384.08 709.031L370.388 614.282H380.716L389.733 708.405C389.786 708.675 389.785 708.953 389.729 709.223C389.672 709.492 389.563 709.748 389.406 709.974C389.249 710.2 389.048 710.393 388.815 710.54C388.582 710.687 388.322 710.786 388.051 710.83Z" fill="black"/>
<path d="M424.804 501.969H355.17C342.808 459.055 298.446 425.216 252.832 425.216H230.221C182.573 425.216 151.825 462.38 161.526 508.033C163.363 516.446 166.345 524.567 170.387 532.17L181.38 598.674C182.788 607.261 189.654 614.224 196.676 614.224H406.281C413.303 614.224 420.168 607.261 421.577 598.674L434.975 517.461C436.403 508.933 431.846 501.969 424.804 501.969Z" fill="#407BFF"/>
<path opacity="0.5" d="M424.804 501.969H355.17C342.808 459.055 298.446 425.216 252.832 425.216H230.221C182.573 425.216 151.825 462.38 161.526 508.033C163.363 516.446 166.345 524.567 170.387 532.17L181.38 598.674C182.788 607.261 189.654 614.224 196.676 614.224H406.281C413.303 614.224 420.168 607.261 421.577 598.674L434.975 517.461C436.403 508.933 431.846 501.969 424.804 501.969Z" fill="white"/>
<path d="M415.728 190.025H399.748V191.981H415.728V190.025Z" fill="#407BFF"/>
<path d="M340.97 213.067H339.014V203.424C339.019 199.864 340.437 196.451 342.957 193.935C345.476 191.419 348.891 190.006 352.452 190.006H388.109V191.962H352.452C349.41 191.962 346.492 193.169 344.34 195.318C342.187 197.467 340.975 200.382 340.97 203.424V213.067Z" fill="#407BFF"/>
<path d="M352.452 196.872H530.78C532.523 196.872 534.195 197.565 535.427 198.797C536.66 200.03 537.352 201.701 537.352 203.444V273.371C537.352 275.119 536.658 276.796 535.422 278.032C534.185 279.268 532.509 279.963 530.761 279.963H352.452C350.703 279.963 349.027 279.268 347.791 278.032C346.554 276.796 345.86 275.119 345.86 273.371V203.425C345.862 202.562 346.035 201.708 346.368 200.911C346.7 200.115 347.187 199.392 347.799 198.783C348.411 198.175 349.137 197.693 349.935 197.365C350.733 197.037 351.589 196.87 352.452 196.872Z" fill="#407BFF"/>
<path d="M522.35 242.837H360.882C359.71 242.837 358.585 242.371 357.756 241.542C356.927 240.713 356.461 239.589 356.461 238.417C356.461 237.244 356.927 236.12 357.756 235.291C358.585 234.462 359.71 233.996 360.882 233.996H522.35C523.522 233.996 524.647 234.462 525.476 235.291C526.305 236.12 526.77 237.244 526.77 238.417C526.77 239.589 526.305 240.713 525.476 241.542C524.647 242.371 523.522 242.837 522.35 242.837Z" fill="white"/>
<path d="M487.787 261.204H360.882C359.709 261.204 358.585 260.739 357.756 259.91C356.927 259.081 356.461 257.956 356.461 256.784C356.456 256.2 356.567 255.621 356.787 255.08C357.006 254.539 357.331 254.047 357.742 253.633C358.153 253.218 358.642 252.889 359.181 252.664C359.72 252.44 360.298 252.324 360.882 252.324H487.787C488.96 252.324 490.084 252.79 490.913 253.619C491.742 254.448 492.208 255.572 492.208 256.745C492.213 257.329 492.102 257.908 491.883 258.448C491.663 258.989 491.338 259.481 490.927 259.896C490.516 260.311 490.027 260.64 489.488 260.864C488.949 261.089 488.371 261.204 487.787 261.204Z" fill="white"/>
<path d="M415.337 224.471H360.882C359.71 224.471 358.585 224.005 357.756 223.176C356.927 222.347 356.461 221.223 356.461 220.05C356.461 218.878 356.927 217.754 357.756 216.925C358.585 216.096 359.71 215.63 360.882 215.63H415.337C416.509 215.63 417.634 216.096 418.463 216.925C419.292 217.754 419.758 218.878 419.758 220.05C419.758 221.223 419.292 222.347 418.463 223.176C417.634 224.005 416.509 224.471 415.337 224.471Z" fill="white"/>
<path d="M487.514 224.471H433.058C431.886 224.471 430.762 224.005 429.933 223.176C429.104 222.347 428.638 221.223 428.638 220.05C428.638 218.878 429.104 217.754 429.933 216.925C430.762 216.096 431.886 215.63 433.058 215.63H487.514C488.686 215.63 489.81 216.096 490.639 216.925C491.468 217.754 491.934 218.878 491.934 220.05C491.934 221.223 491.468 222.347 490.639 223.176C489.81 224.005 488.686 224.471 487.514 224.471Z" fill="white"/>
<path d="M356.461 274.662V295.846C356.461 296.754 356.714 297.644 357.192 298.416C357.669 299.189 358.352 299.813 359.165 300.219C359.977 300.625 360.886 300.797 361.791 300.716C362.695 300.634 363.559 300.302 364.285 299.758L396.755 274.643L356.461 274.662Z" fill="#407BFF"/>
<path d="M631.416 91.9316H453.088C452.222 91.9316 451.365 92.1021 450.565 92.4334C449.766 92.7647 449.039 93.2502 448.427 93.8623C447.815 94.4744 447.329 95.2011 446.998 96.0008C446.667 96.8006 446.496 97.6577 446.496 98.5234V168.45C446.496 170.199 447.191 171.875 448.427 173.111C449.663 174.348 451.34 175.042 453.088 175.042H593.92L619.465 194.798C620.192 195.343 621.056 195.674 621.96 195.756C622.864 195.837 623.774 195.666 624.586 195.259C625.398 194.853 626.081 194.229 626.559 193.457C627.036 192.684 627.289 191.794 627.289 190.886V175.003H631.299C633.047 175.003 634.724 174.308 635.96 173.072C637.196 171.836 637.891 170.159 637.891 168.411V98.5234C637.891 96.7953 637.213 95.1362 636.002 93.9033C634.791 92.6705 633.144 91.9624 631.416 91.9316Z" fill="white"/>
<path d="M622.497 196.813C621.195 196.804 619.932 196.372 618.898 195.581L593.626 176.021H453.088C451.082 176.015 449.159 175.216 447.741 173.798C446.322 172.379 445.523 170.457 445.518 168.451V98.5238C445.523 96.5178 446.322 94.5954 447.741 93.1769C449.159 91.7584 451.082 90.9593 453.088 90.9541H631.416C633.422 90.9593 635.345 91.7584 636.763 93.1769C638.182 94.5954 638.981 96.5178 638.986 98.5238V168.451C638.981 170.457 638.182 172.379 636.763 173.798C635.345 175.216 633.422 176.015 631.416 176.021H628.385V190.925C628.385 192.482 627.766 193.974 626.666 195.075C625.565 196.175 624.073 196.793 622.517 196.793L622.497 196.813ZM453.088 92.9101C451.601 92.9153 450.176 93.5084 449.124 94.56C448.072 95.6117 447.479 97.0366 447.474 98.5238V168.451C447.479 169.938 448.072 171.363 449.124 172.415C450.176 173.466 451.601 174.059 453.088 174.065H594.311L620.052 194.016C620.63 194.473 621.325 194.757 622.058 194.836C622.79 194.915 623.53 194.786 624.192 194.463C624.854 194.14 625.412 193.636 625.801 193.011C626.189 192.385 626.393 191.662 626.389 190.925V174.084H631.377C632.864 174.079 634.289 173.486 635.341 172.434C636.393 171.383 636.986 169.958 636.991 168.47V98.5238C636.986 97.0366 636.393 95.6117 635.341 94.56C634.289 93.5084 632.864 92.9153 631.377 92.9101H453.088Z" fill="#407BFF"/>
<path d="M538.448 137.918H622.986C623.567 137.918 624.141 137.804 624.678 137.582C625.214 137.36 625.701 137.034 626.112 136.623C626.522 136.213 626.848 135.726 627.07 135.189C627.292 134.653 627.407 134.078 627.407 133.498C627.396 132.33 626.927 131.214 626.099 130.39C625.272 129.566 624.153 129.102 622.986 129.097H538.448C537.273 129.102 536.149 129.572 535.321 130.404C534.492 131.236 534.027 132.363 534.027 133.537C534.037 134.702 534.508 135.817 535.336 136.637C536.164 137.458 537.282 137.918 538.448 137.918Z" fill="#407BFF"/>
<path d="M479.415 137.918H521.274C521.854 137.918 522.429 137.804 522.966 137.582C523.502 137.36 523.989 137.034 524.4 136.623C524.81 136.213 525.136 135.726 525.358 135.189C525.58 134.653 525.694 134.078 525.694 133.498C525.684 132.33 525.214 131.214 524.387 130.39C523.56 129.566 522.441 129.102 521.274 129.097H479.415C478.241 129.102 477.117 129.572 476.288 130.404C475.46 131.236 474.995 132.363 474.995 133.537C475.005 134.702 475.475 135.817 476.303 136.637C477.131 137.458 478.25 137.918 479.415 137.918Z" fill="#407BFF"/>
<path d="M496.061 156.284L622.986 156.284C625.428 156.284 627.407 154.305 627.407 151.864C627.407 149.422 625.428 147.443 622.986 147.443L496.061 147.443C493.62 147.443 491.641 149.422 491.641 151.864C491.641 154.305 493.62 156.284 496.061 156.284Z" fill="#407BFF"/>
<path d="M461.616 119.551H622.986C624.158 119.551 625.283 119.085 626.112 118.256C626.941 117.427 627.406 116.303 627.406 115.131C627.406 113.956 626.941 112.83 626.113 111.998C625.284 111.166 624.16 110.696 622.986 110.69H461.616C460.442 110.696 459.317 111.166 458.489 111.998C457.66 112.83 457.195 113.956 457.195 115.131C457.195 116.303 457.661 117.427 458.49 118.256C459.319 119.085 460.443 119.551 461.616 119.551Z" fill="#407BFF"/>
</svg>
